<?xml version="1.0" encoding="utf-8"?>
<!-- Generator: Adobe Illustrator 16.0.0, SVG Export Plug-In . SVG Version: 6.00 Build 0)  -->
<!DOCTYPE svg PUBLIC "-//W3C//DTD SVG 1.1//EN" "http://www.w3.org/Graphics/SVG/1.1/DTD/svg11.dtd">
<svg version="1.1" id="Layer_1" xmlns="http://www.w3.org/2000/svg" xmlns:xlink="http://www.w3.org/1999/xlink" x="0px" y="0px"
	 width="600px" height="300px" viewBox="0 0 600 300" enable-background="new 0 0 600 300" xml:space="preserve">
<g>
	<g>
		<path fill="#FFFFFF" d="M115.264,259.153c-18.051,0-31.909-4.688-41.189-13.93c-9.278-9.241-13.983-23.04-13.983-41.012
			c0-24.504,3.912-42.686,11.959-55.59c0.291-0.465,0.341-1.04,0.137-1.549c-0.314-0.781-0.355-1.656-0.118-2.462
			c2.222-7.543,7.583-14.312,14.708-18.571c0.41-0.244,0.699-0.648,0.799-1.114c0.1-0.466,0.001-0.953-0.271-1.343
			c-0.09-0.129-0.498-0.714-0.593-0.848c-0.117-0.164-0.473-0.646-0.476-0.65c0,0-0.33-0.451-0.437-0.593
			c-0.131-0.175-0.266-0.35-0.401-0.524c0,0-0.433-0.562-0.542-0.7c-0.145-0.184-0.521-0.65-0.521-0.65l0,0
			c0,0-0.338-0.418-0.453-0.559c-0.154-0.186-0.311-0.372-0.467-0.558l-0.529-0.625c-0.186-0.216-0.369-0.424-0.551-0.631
			l-0.479-0.545c-0.208-0.234-0.408-0.453-0.608-0.671l-0.455-0.496c-0.207-0.223-0.767-0.815-0.767-0.815l-0.32-0.337
			c-0.205-0.213-0.404-0.417-0.604-0.622l-0.506-0.515c-0.231-0.233-0.458-0.458-0.687-0.684l-0.444-0.438
			c-0.241-0.235-0.824-0.794-0.824-0.794l-0.329-0.313c-0.25-0.237-0.8-0.75-0.8-0.75l-0.371-0.344
			c-0.262-0.243-0.52-0.477-0.778-0.711l-0.41-0.371c-0.269-0.242-1.203-1.068-1.203-1.068c-0.281-0.247-1.213-1.052-1.213-1.052
			c-0.296-0.254-1.221-1.037-1.221-1.037c-0.312-0.262-1.24-1.032-1.24-1.032c-0.324-0.268-1.046-0.856-1.046-0.856
			c-0.005-0.004-0.877-0.71-1.217-0.98l-1.457-1.155c-0.397-0.312-1.271-0.993-1.271-0.993c-0.39-0.302-1.899-1.462-1.899-1.462
			c-1.166-0.891-1.71-2.385-1.39-3.812c0.321-1.426,1.452-2.545,2.882-2.85c1.521-0.325,3.106-0.489,4.709-0.489
			c3.833,0,7.806,0.903,12.142,2.762c0.219,0.094,0.449,0.139,0.677,0.139c0.472,0,0.934-0.194,1.267-0.557
			c0.493-0.538,0.593-1.329,0.249-1.972c-1.955-3.654-4.039-7.278-6.194-10.771c-0.504-0.816-1.015-1.631-1.534-2.44
			c-0.257-0.402-0.517-0.803-0.779-1.202c-1.125-1.712-2.187-3.239-3.247-4.668c-1.18-1.59-2.322-3.014-3.493-4.354
			c-1.568-1.794-3.189-3.427-4.818-4.854c-1.401-1.227-1.688-3.326-0.669-4.883c0.697-1.064,1.873-1.699,3.146-1.699
			c0.554,0,1.092,0.12,1.597,0.357l0.064,0.032c7.854,3.855,15.157,8.872,21.73,14.922c0.327,0.301,0.745,0.454,1.164,0.454
			c0.356,0,0.714-0.11,1.018-0.334c0.662-0.487,0.887-1.375,0.535-2.119l-0.053-0.118c-0.422-0.92-0.831-1.791-1.247-2.658
			l-0.045-0.095c-0.419-0.874-0.849-1.747-1.286-2.616l-0.028-0.056c-0.444-0.882-0.893-1.755-1.351-2.625
			c-0.479-0.913-0.949-1.785-1.426-2.653c0,0-0.024-0.044-0.024-0.044c-3.37-6.123-7.146-12.051-11.225-17.619l-0.333-0.458
			c-0.129-0.178-0.258-0.356-0.389-0.532c-0.996-1.336-1-3.133-0.013-4.473c0.706-0.957,1.836-1.528,3.025-1.528
			c0.426,0,0.847,0.072,1.249,0.214c13.479,4.758,25.718,14.063,32.741,24.893c0.318,0.491,0.862,0.783,1.441,0.783
			c0.042,0,0.084-0.001,0.126-0.004c0.625-0.046,1.176-0.429,1.437-0.999c1.917-4.192,4.175-8.203,6.714-11.922
			c5.316-7.789,13.194-13.954,21.611-16.914c0.403-0.142,0.822-0.213,1.244-0.213c1.241,0,2.399,0.61,3.101,1.634
			c0.958,1.398,0.858,3.275-0.244,4.564c-0.437,0.511-0.876,1.065-1.345,1.694c-0.509,0.681-1.034,1.454-1.607,2.359l-0.216,0.338
			c-0.062,0.096-0.123,0.191-0.181,0.289c-0.145,0.236-0.282,0.477-0.42,0.718l-0.241,0.42c-0.096,0.169-0.193,0.338-0.287,0.508
			c-0.162,0.294-0.319,0.593-0.474,0.891c-0.143,0.271-0.28,0.539-0.414,0.807c-0.146,0.292-0.285,0.575-0.42,0.858
			c-0.143,0.302-0.285,0.608-0.425,0.913l-0.063,0.139c-0.105,0.229-0.199,0.434-0.288,0.639c-0.16,0.365-0.313,0.729-0.466,1.094
			l-0.251,0.6c-0.135,0.331-0.259,0.642-0.381,0.952c-0.285,0.725-0.048,1.551,0.58,2.013c0.302,0.224,0.661,0.335,1.019,0.335
			c0.381,0,0.761-0.126,1.075-0.377c2.521-2.021,5.116-3.779,7.716-5.228c0.557-0.311,1.189-0.476,1.826-0.476
			c1.009,0,1.956,0.393,2.666,1.108c1.182,1.188,1.432,3.037,0.607,4.496c-0.171,0.304-0.338,0.612-0.506,0.922l-0.198,0.365
			c-2.427,4.469-4.716,9.603-6.805,15.257c-0.324,0.878,0.114,1.854,0.986,2.195c0.701,0.274,1.296,0.746,1.723,1.365
			c0.691,1.003,0.854,2.283,0.434,3.426c-0.208,0.569-0.102,1.206,0.281,1.676c0.329,0.404,0.82,0.633,1.332,0.633
			c0.083,0,0.168-0.006,0.252-0.019c1.638-0.243,3.285-0.367,4.897-0.367c2.711,0,5.271,0.348,7.609,1.031l0.122,0.035
			c0.296,0.086,0.59,0.173,0.873,0.27c1.545,0.531,2.564,1.983,2.537,3.615c-0.028,1.632-1.094,3.05-2.654,3.529
			c-0.668,0.205-1.37,0.465-2.084,0.772c-0.543,0.234-1.135,0.52-1.808,0.872c-0.333,0.175-0.668,0.358-1.002,0.549
			c-0.299,0.171-0.599,0.349-0.897,0.532c-1.633,1.002-3.241,2.169-4.782,3.468c-1.092,0.919-2.117,1.874-3.047,2.835l0.001-0.001
			c-0.031,0.031-0.061,0.063-0.089,0.093c-0.553,0.575-1.083,1.162-1.564,1.734c-0.254,0.302-0.497,0.601-0.729,0.899l-0.243,0.314
			c-0.44,0.57-0.479,1.354-0.096,1.965c0.319,0.507,0.873,0.804,1.455,0.804c0.118,0,0.237-0.012,0.356-0.037
			c3.263-0.692,6.599-1.042,9.916-1.042c5.271,0,10.419,0.854,15.301,2.54c1.656,0.572,2.688,2.188,2.51,3.931
			c-0.177,1.743-1.514,3.118-3.252,3.345c-0.233,0.03-0.466,0.065-0.699,0.1l-0.24,0.036c-0.485,0.071-0.97,0.149-1.453,0.231
			l-0.064,0.012c-0.464,0.08-0.95,0.17-1.436,0.267l-0.043,0.008c-0.412,0.083-0.824,0.17-1.235,0.26l-6.258,1.74
			c-0.388,0.13-0.768,0.262-1.147,0.397l-0.131,0.047c-0.429,0.154-0.857,0.313-1.281,0.477l-0.159,0.061
			c-0.412,0.16-0.827,0.326-1.241,0.497l-0.191,0.08c-0.385,0.16-0.791,0.333-1.195,0.511l-0.172,0.077
			c-0.421,0.187-0.812,0.365-1.201,0.548l-0.215,0.102c-0.385,0.183-0.764,0.367-1.143,0.555l-0.24,0.122
			c-0.372,0.188-0.74,0.376-1.103,0.569l-0.258,0.138c-0.364,0.195-0.719,0.387-1.071,0.584l-0.301,0.171
			c-0.328,0.186-0.669,0.382-1.007,0.583l-0.315,0.188c-0.328,0.196-0.656,0.396-0.981,0.599l-0.331,0.209
			c-0.315,0.2-0.63,0.4-0.942,0.606l-0.357,0.238c-0.299,0.199-0.599,0.402-0.897,0.607l-0.376,0.265
			c-0.29,0.204-0.578,0.406-0.861,0.614l-0.396,0.292c-0.277,0.205-0.551,0.408-0.821,0.615l-0.554,0.432
			c-0.45,0.349-0.697,0.897-0.662,1.465c0.036,0.567,0.35,1.081,0.839,1.371c4.459,2.642,7.65,6.061,9.93,8.745
			c6.079,7.152,5.646,9.271,5.438,10.29c-0.113,0.557-0.334,1.068-0.656,1.521c-0.398,0.561-0.424,1.305-0.066,1.892
			c9.539,15.61,10.826,37.101,10.826,56.065c0,17.446-4.839,31.111-14.382,40.614C146.509,254.332,132.785,259.153,115.264,259.153z
			"/>
		<path fill="#80A249" d="M108.626,64.06c4.121,6.958,7.875,15.107,9.585,23.01c4.031,18.627,5.367,28.763,5.957,43.514
			c-3.332-1.066-11.093-0.376-14.424,0.692c-1.522-33.058-13.136-65.584-32.896-92.128C89.671,43.675,101.847,52.611,108.626,64.06z
			"/>
		<path opacity="0.8" fill="#80A249" d="M77.584,40.159c19.31,26.358,30.658,58.477,32.16,91.118c2.3-0.738,6.712-1.294,10.32-1.218
			C115.333,96.948,106.085,59.491,77.584,40.159z"/>
		<path fill="#80A249" d="M143.414,34.986c-3.881,4.54-6.485,9.957-8.441,15.124c-9.124,24.087-10.105,46.029-9.945,70.28
			c0.008,1.047-0.104,2.305-1.03,2.792c-0.52,0.273-1.145,0.204-1.727,0.128c-4.871-0.636-9.744-1.273-14.616-1.909
			c-0.279-16.147,0.902-32.795,5.42-48.3c2.35-8.064,5.848-15.69,10.584-22.627C128.395,43.537,135.489,37.772,143.414,34.986z"/>
		<path opacity="0.8" fill="#80A249" d="M141.911,36.876c-24.251,19.359-26.132,55.351-28.319,85.301
			c2.893,0.377,5.786,0.756,8.678,1.133c0.583,0.076,1.207,0.145,1.727-0.128c0.927-0.487,1.038-1.745,1.03-2.792
			c-0.161-24.251,0.821-46.193,9.945-70.28C136.664,45.642,138.844,40.989,141.911,36.876z"/>
		<path fill="#80A249" d="M151.007,50.669c-12.568,22.249-19.144,56.393-20.415,81.737c-5.123-1.65-11.301-1.269-16.423-2.92
			c3.1-12.552,5.839-34.853,10.949-48.721C129.587,68.633,139.898,56.861,151.007,50.669z"/>
		<path opacity="0.8" fill="#80A249" d="M150.273,52.011c-20.636,20.452-25.079,51.146-30.795,78.586
			c3.754,0.507,7.672,0.701,11.114,1.809C131.838,107.563,138.185,74.273,150.273,52.011z"/>
		<path fill="#80A249" d="M126.75,101.354c3.747-5.723,8.513-11.922,14.412-15.385c7.318-4.296,16.428-5.334,22.896-3.107
			c-6.523,2.001-13.672,7.653-17.865,13.037c-9.029,11.596-15.537,24.41-18.681,38.766c-3.965-0.296-9.651-1.187-13.617-1.483
			C116.523,122.197,120.563,110.804,126.75,101.354z"/>
		<path opacity="0.8" fill="#80A249" d="M118.698,133.679c3.042,0.364,6.279,0.796,8.814,0.985
			c3.145-14.356,9.652-27.17,18.681-38.766c4.193-5.383,11.342-11.036,17.865-13.037c-0.271-0.093-0.551-0.172-0.83-0.254
			C138.943,85.878,123.875,110.226,118.698,133.679z"/>
		<path fill="#80A249" d="M85.757,101.788c6.333,3.881,12.246,8.601,16.727,14.523c4.482,5.923,7.473,13.127,7.609,20.553
			c-3.791-1.906-8.419-2.062-12.33-0.415c-5.093-16.963-19.219-29.492-33.301-40.233C71.82,94.648,79.343,97.858,85.757,101.788z"/>
		<path opacity="0.8" fill="#80A249" d="M65.157,96.749c13.85,10.623,27.598,23.017,32.606,39.7
			c1.294-0.545,2.668-0.889,4.063-1.041C96.957,117.793,82.226,103.025,65.157,96.749z"/>
		<path fill="#80A249" d="M79.725,79.683c10.3,16.692,18.218,34.852,23.438,53.758c3.825-1.529,7.65-3.058,11.475-4.587
			c-4.341-28.701-23.444-54.764-49.506-67.543C71.037,66.483,75.602,73.001,79.725,79.683z"/>
		<path opacity="0.8" fill="#80A249" d="M70.557,65.026c-0.924-0.766-4.348-3.187-5.426-3.715
			c5.906,5.172,10.471,11.69,14.594,18.372c10.3,16.692,18.218,34.852,23.438,53.758c1.919-0.767,3.839-1.535,5.759-2.302
			C99.765,105.865,92.317,83.092,70.557,65.026z"/>
		<path fill="#80A249" d="M120.929,129.741c4.325-9.816,12.44-17.905,22.271-22.198c9.831-4.292,21.279-4.746,31.419-1.245
			c-17.307,2.262-33.557,11.745-44.039,25.702C127.479,130.834,124.227,130.073,120.929,129.741z"/>
		<path opacity="0.8" fill="#80A249" d="M124.173,130.214c2.183,0.41,4.33,1.005,6.408,1.787
			c10.281-13.688,26.109-23.068,43.042-25.558C154.943,106.508,135.163,115.467,124.173,130.214z"/>
		<path fill="#80A249" d="M122.198,129.486c-2.815,0.47-8.862,4.458-11.678,4.927c-1.81-20.29-7.516-39.771-18.107-57.17
			c9.147,1.585,17.78,9.893,22.304,20.127C122.381,114.706,121.788,125.631,122.198,129.486z"/>
		<path fill="#80A249" d="M116.862,127.147c2.819,0.455,8.885,4.413,11.704,4.868c1.708-20.298,7.316-39.808,17.82-57.261
			c-9.14,1.632-17.729,9.982-22.204,20.24C116.605,112.367,117.253,123.289,116.862,127.147z"/>
		<path opacity="0.8" fill="#80A249" d="M146.16,75.143c-10.355,17.354-15.899,36.724-17.595,56.873
			c-1.54-0.249-4.046-1.541-6.463-2.737C122.525,108.797,129.773,87.724,146.16,75.143z"/>
		<path fill="#EFB638" d="M166.68,204.212c0,34.616-19.938,51.184-51.416,51.184c-33.667,0-51.416-16.567-51.416-51.184
			c0-34.618,7.896-74.178,51.416-74.178C162.343,130.034,166.68,169.594,166.68,204.212z"/>
		<g>
			<defs>
				<path id="SVGID_1_" d="M166.68,204.212c0,34.616-19.938,51.184-51.416,51.184c-33.667,0-51.416-16.567-51.416-51.184
					c0-34.618,7.896-74.178,51.416-74.178C162.343,130.034,166.68,169.594,166.68,204.212z"/>
			</defs>
			<clipPath id="SVGID_2_">
				<use xlink:href="#SVGID_1_"  overflow="visible"/>
			</clipPath>
			<g clip-path="url(#SVGID_2_)">
				<path fill="none" stroke="#C27A1A" stroke-width="6.3722" stroke-miterlimit="10" d="M132.761,115.037
					c-22.818,23.176-49.754,42.285-79.167,56.163"/>
				<path fill="none" stroke="#C27A1A" stroke-width="6.3722" stroke-miterlimit="10" d="M147.369,125.277
					c-5.507,7.521-11.046,15.077-17.675,21.632c-10.621,10.504-43.853,33.293-57.552,40.515
					c-7.813,4.119-15.849,7.792-23.992,11.213"/>
				<path fill="none" stroke="#C27A1A" stroke-width="6.3722" stroke-miterlimit="10" d="M164.018,135.729
					c-18.919,28.795-48.626,49.426-76.673,69.303c-13.536,9.595-28.28,17.354-44.085,22.401"/>
				<path fill="none" stroke="#C27A1A" stroke-width="6.3722" stroke-miterlimit="10" d="M174.909,157.22
					c-12.909,15.794-29.003,28.626-44.964,41.326c-24.403,19.42-49.296,39.125-78.371,50.406"/>
				<path fill="none" stroke="#C27A1A" stroke-width="6.3722" stroke-miterlimit="10" d="M181.113,174.787
					c-5.692,7.478-11.393,14.967-17.717,21.918c-8.249,9.068-17.503,17.162-26.901,25.032c-20.337,17.032-41.8,33.317-66.377,43.294
					"/>
				<path fill="none" stroke="#C27A1A" stroke-width="6.3722" stroke-miterlimit="10" d="M187.189,196.067
					c-22.634,33.092-54.291,58.979-87.338,81.681c-4.345,2.983-8.913,6-14.125,6.784"/>
				<path fill="none" stroke="#C27A1A" stroke-width="6.3722" stroke-miterlimit="10" d="M114.608,101.622
					c2.404,10.059,10.063,17.925,17.732,24.864c22.283,20.159,47.79,37.345,76.376,46.608"/>
				<path fill="none" stroke="#C27A1A" stroke-width="6.3722" stroke-miterlimit="10" d="M91.1,105.861
					c3.385,4.648,7.383,8.811,11.373,12.952c13.772,14.298,27.73,28.661,44.213,39.726c13.873,9.313,29.253,16.099,44.543,22.836
					c3.943,1.736,7.933,3.488,12.175,4.239c3.398,0.602,6.934,0.556,10.202,1.664"/>
				<path fill="none" stroke="#C27A1A" stroke-width="6.3722" stroke-miterlimit="10" d="M72.286,110.075
					c2.889,6.584,7.496,12.251,12.217,17.675c23.46,26.95,51.198,50.169,81.855,68.52c9.297,5.564,18.986,10.736,29.494,13.38
					c4.795,1.208,9.708,1.875,14.608,2.538"/>
				<path fill="none" stroke="#C27A1A" stroke-width="6.3722" stroke-miterlimit="10" d="M54.806,126.328
					c32.985,43.05,77.028,77.555,126.721,99.28c6.927,3.028,13.994,5.823,21.355,7.543c3.84,0.898,7.866,1.546,11.159,3.718"/>
				<path fill="none" stroke="#C27A1A" stroke-width="6.3722" stroke-miterlimit="10" d="M47.198,148.486
					c15.062,23.333,37.718,40.563,60.137,56.956c8.09,5.915,16.21,11.785,24.363,17.613c16.281,11.639,33.093,23.301,52.349,28.756"
					/>
				<path fill="none" stroke="#C27A1A" stroke-width="6.3722" stroke-miterlimit="10" d="M47.347,179.984
					c13.693,18.245,32.458,31.925,50.987,45.232c22.752,16.343,46.169,32.844,73.09,40.591"/>
				<path fill="none" stroke="#C27A1A" stroke-width="6.3722" stroke-miterlimit="10" d="M44.923,203.434
					c13.765,13.415,27.53,26.829,41.294,40.244c5.656,5.511,11.344,11.049,17.825,15.564c5.205,3.626,10.865,6.55,16.615,9.229
					c7.917,3.688,16.031,6.933,24.141,10.174"/>
			</g>
		</g>
		<path fill="#80A249" d="M101.732,125.255c-11.763,0.528-22.733,9.123-26.06,20.417c13.274-6.542,27.55-11.048,42.174-13.313
			C114.6,127.127,107.884,124.979,101.732,125.255z"/>
		<path fill="#80A249" d="M152.033,136.877c2.327,2.738,5.235,6.895,4.516,7.254c-15.875,7.938-35.993-10.401-35.517-17.433
			c5.63-1.94,11.922-1.898,17.527,0.116C144.162,128.828,148.176,132.339,152.033,136.877z"/>
		<path opacity="0.8" fill="#80A249" d="M92.639,77.63c10.442,17.302,16.083,36.643,17.88,56.783
			c1.538-0.256,4.038-1.561,6.449-2.77C116.443,111.166,109.09,90.128,92.639,77.63z"/>
		<path opacity="0.8" fill="#80A249" d="M109.286,126.187c-12.409,2.955-24.191,9.581-32.354,18.881
			c12.917-6.212,26.751-10.515,40.916-12.708C115.928,129.268,112.795,127.261,109.286,126.187z"/>
		<path fill="#80A249" d="M104.571,144.567c0.244,4.855,2.155,9.457,4.15,13.892c0.577,1.283,1.229,2.639,2.436,3.362
			c7.248-8.601,12.629-18.013,11.36-29.187c-0.22-1.937-1.379-5.228-3.011-6.295c-2.224-1.456-6.833-1.54-8.895,0.136
			C105.512,130.621,104.24,138.004,104.571,144.567z"/>
		<path opacity="0.8" fill="#80A249" d="M122.517,132.634c-0.22-1.937-1.379-5.228-3.011-6.295
			c-1.061-0.695-2.666-1.073-4.278-1.101c-2.698,11.833-3.664,24.147-4.163,36.519c0.031,0.02,0.059,0.043,0.091,0.063
			C118.404,153.221,123.786,143.809,122.517,132.634z"/>
		<path opacity="0.8" fill="#80A249" d="M121.028,126.877c-0.135,7.103,19.478,24.851,35.165,17.421
			C147.015,136.467,136.203,129.35,121.028,126.877z"/>
	</g>
	<text transform="matrix(1 0 0 1 270.1216 153.0859)"><tspan x="0" y="0" fill="#FFFFFF" stroke="#FFFFFF" stroke-width="3" stroke-miterlimit="10" font-family="'ProximaNova-Semibold'" font-size="120">Hello</tspan><tspan x="0" y="72" fill="#FFFFFF" stroke="#FFFFFF" stroke-miterlimit="10" font-family="'ProximaNovaA-Regular'" font-size="72">SUBANG</tspan></text>
	<g>
		<line fill="#FFFFFF" x1="230" y1="33" x2="230" y2="258"/>
		<path fill="#FFFFFF" d="M230.122,33c0,0,0.089,0.879,0.257,2.527c0.142,1.648,0.405,4.065,0.633,7.141
			c0.242,3.076,0.564,6.812,0.823,11.096c0.286,4.285,0.61,9.119,0.882,14.392c0.562,10.547,1.054,22.852,1.383,36.035
			c0.072,3.296,0.146,6.646,0.22,10.039c0.068,3.392,0.13,6.826,0.16,10.286c0.101,6.921,0.115,13.953,0.14,20.984
			c-0.024,7.031-0.032,14.063-0.133,20.984c-0.031,3.46-0.084,6.894-0.157,10.285c-0.074,3.393-0.146,6.743-0.217,10.039
			c-0.328,13.184-0.82,25.488-1.383,36.035c-0.274,5.273-0.597,10.107-0.886,14.393c-0.261,4.284-0.583,8.02-0.827,11.096
			c-0.229,3.076-0.493,5.493-0.636,7.141c-0.169,1.648-0.259,2.527-0.259,2.527s-0.09-0.879-0.259-2.527
			c-0.144-1.647-0.407-4.064-0.636-7.141c-0.245-3.076-0.566-6.812-0.827-11.096c-0.29-4.285-0.612-9.119-0.886-14.393
			c-0.563-10.547-1.055-22.852-1.383-36.035c-0.071-3.296-0.144-6.646-0.217-10.039c-0.073-3.392-0.126-6.825-0.157-10.285
			c-0.101-6.922-0.109-13.953-0.133-20.984c0.025-7.031,0.039-14.063,0.14-20.984c0.029-3.46,0.091-6.894,0.16-10.286
			c0.074-3.392,0.147-6.743,0.22-10.039c0.33-13.184,0.822-25.488,1.383-36.035c0.272-5.273,0.597-10.107,0.882-14.392
			c0.259-4.285,0.582-8.02,0.823-11.096c0.228-3.076,0.491-5.493,0.633-7.141C230.032,33.879,230.122,33,230.122,33z"/>
	</g>
</g>
</svg>
