<?xml version="1.0" encoding="utf-8"?>
<!-- Generator: Adobe Illustrator 16.0.0, SVG Export Plug-In . SVG Version: 6.00 Build 0)  -->
<!DOCTYPE svg PUBLIC "-//W3C//DTD SVG 1.1//EN" "http://www.w3.org/Graphics/SVG/1.1/DTD/svg11.dtd">
<svg version="1.1" xmlns="http://www.w3.org/2000/svg" xmlns:xlink="http://www.w3.org/1999/xlink" x="0px" y="0px" width="800px"
	 height="800px" viewBox="0 0 800 800" enable-background="new 0 0 800 800" xml:space="preserve">
<g id="background">
</g>
<g id="objects">
	<g>
		<path fill="#FFFFFF" d="M413.96,674.761c-51.563,0-91.149-13.388-117.658-39.789C269.8,608.576,256.36,569.16,256.36,517.819
			c0-69.993,11.175-121.935,34.163-158.791c0.829-1.329,0.973-2.973,0.391-4.427c-0.896-2.231-1.016-4.729-0.338-7.033
			c6.347-21.545,21.661-40.88,42.016-53.047c1.169-0.699,1.995-1.852,2.281-3.183c0.285-1.331,0.005-2.721-0.773-3.837
			c-0.256-0.369-1.42-2.039-1.693-2.42c-0.335-0.469-1.351-1.847-1.358-1.857c-0.001,0-0.944-1.289-1.249-1.695
			c-0.375-0.499-0.761-0.998-1.148-1.498c0,0-1.236-1.605-1.547-1.999c-0.415-0.524-1.488-1.855-1.488-1.855l0,0
			c0,0-0.963-1.195-1.294-1.596c-0.438-0.531-0.887-1.063-1.335-1.595l-1.51-1.786c-0.531-0.618-1.052-1.211-1.573-1.803
			l-1.37-1.557c-0.597-0.667-1.167-1.292-1.739-1.917l-1.298-1.416c-0.589-0.636-2.19-2.328-2.19-2.328l-0.916-0.962
			c-0.584-0.61-1.155-1.193-1.726-1.775l-1.445-1.471c-0.66-0.666-1.311-1.309-1.961-1.952l-1.268-1.252
			c-0.688-0.669-2.354-2.268-2.354-2.268l-0.938-0.896c-0.713-0.676-2.285-2.145-2.285-2.145l-1.06-0.981
			c-0.749-0.693-1.484-1.363-2.222-2.031l-1.172-1.059c-0.769-0.691-3.437-3.051-3.437-3.051c-0.803-0.705-3.465-3.006-3.465-3.006
			c-0.846-0.727-3.489-2.962-3.489-2.962c-0.889-0.748-3.542-2.948-3.542-2.948c-0.925-0.763-2.989-2.444-2.989-2.444
			c-0.014-0.012-2.507-2.027-3.476-2.8l-4.162-3.3c-1.133-0.89-3.632-2.835-3.632-2.835c-1.113-0.863-5.425-4.176-5.425-4.176
			c-3.331-2.543-4.884-6.814-3.968-10.889c0.916-4.074,4.147-7.27,8.231-8.141c4.346-0.927,8.872-1.396,13.453-1.396
			c10.951,0,22.296,2.581,34.684,7.889c0.624,0.267,1.281,0.396,1.933,0.396c1.347,0,2.667-0.555,3.618-1.59
			c1.409-1.537,1.693-3.795,0.71-5.633c-5.584-10.438-11.537-20.789-17.695-30.766c-1.439-2.332-2.898-4.659-4.382-6.972
			c-0.735-1.146-1.476-2.292-2.226-3.433c-3.212-4.89-6.247-9.252-9.274-13.335c-3.37-4.542-6.634-8.61-9.979-12.438
			c-4.479-5.124-9.109-9.789-13.763-13.865c-4.001-3.503-4.822-9.5-1.91-13.948c1.99-3.04,5.349-4.854,8.987-4.854
			c1.583,0,3.118,0.344,4.561,1.022l0.185,0.09c22.434,11.012,43.297,25.343,62.075,42.625c0.935,0.86,2.128,1.296,3.325,1.296
			c1.018,0,2.039-0.316,2.908-0.955c1.891-1.392,2.532-3.93,1.527-6.052l-0.152-0.337c-1.206-2.63-2.373-5.116-3.563-7.593
			l-0.128-0.27c-1.198-2.495-2.424-4.989-3.674-7.472l-0.08-0.161c-1.268-2.518-2.551-5.013-3.858-7.497
			c-1.37-2.607-2.71-5.099-4.073-7.579c-0.001,0-0.068-0.126-0.068-0.126c-9.628-17.492-20.416-34.425-32.064-50.33l-0.952-1.309
			c-0.369-0.508-0.737-1.017-1.112-1.52c-2.843-3.816-2.855-8.95-0.037-12.777c2.016-2.734,5.245-4.366,8.642-4.366
			c1.216,0,2.418,0.206,3.569,0.613c38.502,13.591,73.465,40.173,93.525,71.106c0.909,1.402,2.463,2.238,4.117,2.238
			c0.119,0,0.239-0.004,0.36-0.013c1.786-0.131,3.36-1.225,4.104-2.854c5.474-11.974,11.926-23.432,19.179-34.055
			c15.188-22.25,37.69-39.86,61.734-48.315c1.15-0.404,2.347-0.609,3.554-0.609c3.542,0,6.852,1.744,8.855,4.666
			c2.737,3.995,2.452,9.357-0.695,13.039c-1.248,1.459-2.504,3.042-3.841,4.837c-1.453,1.947-2.955,4.152-4.592,6.741l-0.616,0.966
			c-0.175,0.272-0.35,0.546-0.516,0.823c-0.412,0.675-0.805,1.363-1.2,2.051l-0.688,1.2c-0.275,0.482-0.553,0.965-0.819,1.451
			c-0.46,0.84-0.91,1.692-1.354,2.544c-0.405,0.775-0.799,1.539-1.182,2.306c-0.415,0.832-0.813,1.64-1.201,2.451
			c-0.409,0.865-0.814,1.737-1.212,2.61l-0.18,0.396c-0.3,0.654-0.568,1.24-0.822,1.826c-0.458,1.043-0.896,2.083-1.333,3.124
			l-0.719,1.712c-0.384,0.946-0.738,1.835-1.088,2.722c-0.814,2.069-0.137,4.429,1.656,5.749c0.865,0.639,1.889,0.958,2.911,0.958
			c1.089,0,2.174-0.361,3.07-1.078c7.199-5.771,14.614-10.795,22.039-14.933c1.593-0.889,3.397-1.358,5.217-1.358
			c2.881,0,5.586,1.124,7.613,3.166c3.375,3.394,4.089,8.675,1.733,12.844c-0.489,0.866-0.966,1.749-1.445,2.632l-0.565,1.044
			c-6.931,12.765-13.471,27.43-19.437,43.583c-0.925,2.509,0.326,5.297,2.816,6.271c2.001,0.783,3.702,2.131,4.92,3.9
			c1.975,2.864,2.439,6.521,1.241,9.785c-0.597,1.626-0.292,3.445,0.803,4.789c0.939,1.155,2.342,1.81,3.806,1.81
			c0.237,0,0.479-0.018,0.72-0.053c4.678-0.694,9.385-1.046,13.988-1.046c7.743,0,15.058,0.991,21.734,2.944l0.348,0.101
			c0.846,0.246,1.685,0.493,2.492,0.771c4.414,1.516,7.323,5.665,7.247,10.326c-0.079,4.661-3.125,8.712-7.58,10.079
			c-1.91,0.587-3.914,1.329-5.953,2.208c-1.553,0.669-3.243,1.483-5.165,2.489c-0.953,0.499-1.91,1.024-2.863,1.57
			c-0.855,0.489-1.711,0.995-2.564,1.519c-4.664,2.863-9.258,6.195-13.66,9.906c-3.118,2.627-6.047,5.352-8.704,8.1l0.005-0.004
			c-0.089,0.09-0.173,0.179-0.254,0.265c-1.58,1.642-3.095,3.319-4.47,4.952c-0.724,0.862-1.419,1.718-2.083,2.57l-0.695,0.898
			c-1.258,1.629-1.368,3.87-0.272,5.612c0.91,1.449,2.492,2.297,4.155,2.297c0.338,0,0.678-0.035,1.019-0.106
			c9.32-1.977,18.851-2.979,28.324-2.979c15.056,0,29.761,2.441,43.706,7.257c4.73,1.633,7.679,6.25,7.17,11.228
			c-0.505,4.98-4.325,8.908-9.289,9.555c-0.668,0.087-1.332,0.186-1.998,0.285l-0.686,0.102c-1.388,0.203-2.771,0.425-4.15,0.662
			l-0.185,0.033c-1.325,0.229-2.713,0.488-4.101,0.764c0,0-0.122,0.024-0.122,0.024c-1.18,0.236-2.356,0.484-3.53,0.743
			l-17.876,4.97c-1.109,0.373-2.195,0.749-3.276,1.135l-0.376,0.136c-1.227,0.441-2.447,0.896-3.659,1.362l-0.453,0.174
			c-1.175,0.457-2.36,0.931-3.547,1.419l-0.544,0.227c-1.101,0.458-2.26,0.953-3.413,1.461l-0.491,0.22
			c-1.203,0.533-2.319,1.043-3.432,1.565l-0.613,0.292c-1.101,0.522-2.184,1.047-3.265,1.585l-0.686,0.348
			c-1.063,0.536-2.113,1.074-3.151,1.624l-0.737,0.396c-1.038,0.556-2.052,1.106-3.059,1.669l-0.86,0.488
			c-0.937,0.531-1.912,1.091-2.876,1.663l-0.9,0.539c-0.936,0.561-1.875,1.129-2.805,1.71l-0.946,0.599
			c-0.898,0.569-1.798,1.143-2.691,1.73l-1.021,0.682c-0.852,0.569-1.709,1.147-2.563,1.734l-1.073,0.757
			c-0.827,0.582-1.651,1.161-2.459,1.752l-1.131,0.836c-0.791,0.585-1.572,1.166-2.344,1.756l-1.582,1.233
			c-1.284,0.996-1.991,2.563-1.891,4.185c0.103,1.621,0.999,3.088,2.396,3.916c12.739,7.547,21.852,17.314,28.367,24.98
			c17.363,20.43,16.127,26.482,15.532,29.392c-0.323,1.592-0.954,3.053-1.874,4.344c-1.139,1.602-1.213,3.729-0.189,5.406
			c27.249,44.59,30.923,105.979,30.923,160.149c0,49.835-13.821,88.87-41.082,116.019
			C503.214,660.993,464.011,674.761,413.96,674.761z"/>
		<g>
			<path fill="#80A249" d="M395.001,117.47c11.771,19.875,22.493,43.154,27.379,65.73c11.516,53.208,15.332,82.161,17.015,124.299
				c-9.518-3.046-31.688-1.074-41.203,1.978c-4.347-94.431-37.523-187.342-93.971-263.168
				C340.854,59.242,375.635,84.767,395.001,117.47z"/>
			<path opacity="0.8" fill="#80A249" d="M306.328,49.196c55.157,75.293,87.573,167.04,91.864,260.281
				c6.57-2.107,19.174-3.697,29.48-3.478C414.16,211.417,387.743,104.42,306.328,49.196z"/>
			<path fill="#80A249" d="M494.371,34.42c-11.084,12.968-18.525,28.442-24.113,43.201
				c-26.063,68.806-28.866,131.486-28.406,200.758c0.021,2.99-0.298,6.586-2.943,7.977c-1.485,0.78-3.271,0.583-4.933,0.366
				c-13.916-1.818-27.834-3.635-41.751-5.453c-0.796-46.124,2.576-93.682,15.481-137.971c6.713-23.035,16.704-44.818,30.233-64.635
				S471.736,42.38,494.371,34.42z"/>
			<path opacity="0.8" fill="#80A249" d="M490.081,39.819c-69.274,55.298-74.647,158.113-80.895,243.665
				c8.263,1.079,16.526,2.159,24.789,3.238c1.662,0.217,3.447,0.414,4.933-0.366c2.646-1.391,2.965-4.987,2.943-7.977
				c-0.46-69.272,2.344-131.952,28.406-200.758C475.09,64.858,481.319,51.568,490.081,39.819z"/>
			<path fill="#80A249" d="M516.062,79.221c-35.902,63.556-54.685,161.089-58.315,233.485c-14.633-4.714-32.28-3.626-46.913-8.341
				c8.854-35.856,16.68-99.559,31.276-139.174C454.876,130.535,484.33,96.907,516.062,79.221z"/>
			<path opacity="0.8" fill="#80A249" d="M513.965,83.052c-58.948,58.421-71.64,146.102-87.968,224.485
				c10.724,1.449,21.917,2.001,31.749,5.169C461.306,241.741,479.436,146.646,513.965,83.052z"/>
			<path fill="#80A249" d="M446.771,224.004c10.703-16.348,24.317-34.054,41.168-43.947c20.904-12.273,46.929-15.239,65.403-8.878
				c-18.633,5.717-39.054,21.862-51.029,37.24c-25.794,33.124-44.382,69.728-53.363,110.737c-11.328-0.846-27.57-3.389-38.897-4.235
				C417.559,283.542,429.098,250.997,446.771,224.004z"/>
			<path opacity="0.8" fill="#80A249" d="M423.772,316.341c8.689,1.041,17.936,2.273,25.178,2.814
				c8.981-41.01,27.569-77.613,53.363-110.737c11.976-15.378,32.396-31.523,51.029-37.24c-0.771-0.266-1.574-0.491-2.37-0.724
				C481.602,179.798,438.559,249.346,423.772,316.341z"/>
			<path fill="#80A249" d="M329.674,225.242c18.092,11.085,34.98,24.567,47.782,41.487c12.803,16.919,21.345,37.496,21.734,58.71
				c-10.829-5.444-24.049-5.889-35.221-1.185c-14.547-48.455-54.898-84.245-95.125-114.927
				C289.861,204.847,311.353,214.017,329.674,225.242z"/>
			<path opacity="0.8" fill="#80A249" d="M270.83,210.849c39.562,30.345,78.833,65.748,93.14,113.405
				c3.698-1.558,7.622-2.538,11.607-2.973C361.666,270.963,319.586,228.777,270.83,210.849z"/>
			<path fill="#80A249" d="M312.443,162.099c29.423,47.681,52.04,99.556,66.95,153.564c10.926-4.368,21.852-8.736,32.777-13.104
				c-12.399-81.985-66.969-156.434-141.417-192.94C287.625,124.394,300.666,143.014,312.443,162.099z"/>
			<path opacity="0.8" fill="#80A249" d="M286.254,120.232c-2.639-2.189-12.419-9.103-15.501-10.613
				c16.872,14.775,29.912,33.395,41.69,52.48c29.423,47.681,52.04,99.556,66.95,153.564c5.483-2.192,10.967-4.384,16.45-6.576
				C369.686,236.89,348.413,171.837,286.254,120.232z"/>
			<path fill="#80A249" d="M430.144,305.092c12.354-28.042,35.535-51.146,63.618-63.408c28.082-12.261,60.785-13.557,89.75-3.556
				c-49.438,6.46-95.856,33.549-125.799,73.417C448.856,308.216,439.562,306.04,430.144,305.092z"/>
			<path opacity="0.8" fill="#80A249" d="M439.411,306.442c6.234,1.172,12.366,2.873,18.303,5.104
				c29.367-39.101,74.58-65.896,122.949-73.007C527.306,238.726,470.803,264.318,439.411,306.442z"/>
			<path fill="#80A249" d="M433.768,304.365c-8.044,1.341-25.314,12.734-33.359,14.075c-5.171-57.958-21.47-113.607-51.725-163.311
				c26.129,4.529,50.787,28.258,63.714,57.496C434.291,262.144,432.597,293.35,433.768,304.365z"/>
			<path fill="#80A249" d="M418.526,297.682c8.051,1.3,25.379,12.605,33.432,13.906c4.879-57.983,20.897-113.713,50.904-163.568
				c-26.107,4.661-50.646,28.513-63.425,57.815C417.792,255.463,419.643,286.661,418.526,297.682z"/>
			<path opacity="0.8" fill="#80A249" d="M502.217,149.129c-29.58,49.573-45.417,104.903-50.26,162.459
				c-4.398-0.71-11.558-4.401-18.464-7.819C434.704,245.265,455.406,185.068,502.217,149.129z"/>
			<g>
				<path fill="#EFB638" d="M560.832,517.819c0,98.887-56.954,146.212-146.871,146.212c-96.17,0-146.871-47.325-146.871-146.212
					S289.643,305.93,413.96,305.93C548.444,305.93,560.832,418.932,560.832,517.819z"/>
				<g>
					<defs>
						<path id="SVGID_1_" d="M560.832,517.819c0,98.887-56.954,146.212-146.871,146.212c-96.17,0-146.871-47.325-146.871-146.212
							S289.643,305.93,413.96,305.93C548.444,305.93,560.832,418.932,560.832,517.819z"/>
					</defs>
					<clipPath id="SVGID_2_">
						<use xlink:href="#SVGID_1_"  overflow="visible"/>
					</clipPath>
					<g clip-path="url(#SVGID_2_)">
						<path fill="none" stroke="#C27A1A" stroke-width="6.3722" stroke-miterlimit="10" d="M463.942,263.09
							c-65.179,66.203-142.123,120.789-226.143,160.432"/>
						<path fill="none" stroke="#C27A1A" stroke-width="6.3722" stroke-miterlimit="10" d="M505.67,292.341
							c-15.733,21.484-31.555,43.069-50.49,61.793c-30.339,30.005-125.266,95.101-164.399,115.73
							c-22.321,11.767-45.273,22.258-68.536,32.029"/>
						<path fill="none" stroke="#C27A1A" stroke-width="6.3722" stroke-miterlimit="10" d="M553.227,322.196
							c-54.042,82.251-138.903,141.185-219.018,197.969c-38.666,27.406-80.784,49.568-125.931,63.987"/>
						<path fill="none" stroke="#C27A1A" stroke-width="6.3722" stroke-miterlimit="10" d="M584.339,383.584
							c-36.876,45.117-82.849,81.771-128.442,118.054C386.19,557.11,315.082,613.399,232.028,645.624"/>
						<path fill="none" stroke="#C27A1A" stroke-width="6.3722" stroke-miterlimit="10" d="M602.061,433.769
							c-16.26,21.359-32.545,42.751-50.609,62.607c-23.563,25.902-49.997,49.025-76.843,71.509
							c-58.095,48.65-119.402,95.167-189.61,123.669"/>
						<path fill="none" stroke="#C27A1A" stroke-width="6.3722" stroke-miterlimit="10" d="M619.417,494.556
							c-64.656,94.527-155.085,168.479-249.483,233.321c-12.412,8.525-25.462,17.139-40.351,19.382"/>
						<path fill="none" stroke="#C27A1A" stroke-width="6.3722" stroke-miterlimit="10" d="M412.087,224.768
							c6.867,28.732,28.745,51.205,50.651,71.024c63.652,57.586,136.514,106.678,218.169,133.138"/>
						<path fill="none" stroke="#C27A1A" stroke-width="6.3722" stroke-miterlimit="10" d="M344.936,236.878
							c9.668,13.279,21.089,25.167,32.485,36.997c39.343,40.844,79.212,81.87,126.297,113.478
							c39.627,26.602,83.563,45.987,127.239,65.231c11.264,4.962,22.659,9.967,34.778,12.112c9.708,1.717,19.805,1.586,29.14,4.753"
							/>
						<path fill="none" stroke="#C27A1A" stroke-width="6.3722" stroke-miterlimit="10" d="M291.193,248.915
							c8.251,18.81,21.413,34.995,34.898,50.488c67.014,76.983,146.248,143.309,233.822,195.73
							c26.559,15.896,54.233,30.665,84.25,38.22c13.698,3.449,27.732,5.354,41.73,7.252"/>
						<path fill="none" stroke="#C27A1A" stroke-width="6.3722" stroke-miterlimit="10" d="M241.259,295.341
							c94.225,122.973,220.034,221.539,361.983,283.596c19.788,8.651,39.975,16.635,61.004,21.549
							c10.969,2.563,22.47,4.416,31.874,10.618"/>
						<path fill="none" stroke="#C27A1A" stroke-width="6.3722" stroke-miterlimit="10" d="M219.53,358.638
							c43.022,66.654,107.741,115.872,171.782,162.696c23.108,16.895,46.306,33.667,69.594,50.313
							c46.507,33.247,94.531,66.56,149.534,82.146"/>
						<path fill="none" stroke="#C27A1A" stroke-width="6.3722" stroke-miterlimit="10" d="M219.954,448.613
							c39.114,52.121,92.717,91.193,145.645,129.209c64.994,46.683,131.883,93.816,208.783,115.948"/>
						<path fill="none" stroke="#C27A1A" stroke-width="6.3722" stroke-miterlimit="10" d="M213.031,515.6
							c39.32,38.318,78.64,76.636,117.959,114.955c16.155,15.744,32.405,31.566,50.917,44.461
							c14.868,10.356,31.038,18.71,47.464,26.363c22.612,10.536,45.792,19.802,68.959,29.06"/>
					</g>
				</g>
				<path fill="#EFB638" d="M457.735,310.713c41.481,45.021,46.802,122.512,46.802,193.378c0,96.994-45.814,148.605-120.103,158.243
					c9.319,1.11,19.142,1.696,29.526,1.696c89.917,0,146.871-47.325,146.871-146.212
					C560.832,430.94,551.255,333.178,457.735,310.713z"/>
			</g>
			<path fill="#80A249" d="M375.308,292.277c-33.601,1.508-64.937,26.06-74.44,58.322c37.918-18.688,78.697-31.56,120.472-38.028
				C412.065,297.627,392.879,291.488,375.308,292.277z"/>
			<path fill="#80A249" d="M518.993,325.476c6.646,7.819,14.954,19.693,12.9,20.72c-45.347,22.675-102.816-29.711-101.456-49.795
				c16.082-5.542,34.057-5.423,50.065,0.33C496.508,302.483,507.976,312.515,518.993,325.476z"/>
			<path opacity="0.8" fill="#80A249" d="M349.332,156.235c29.829,49.423,45.943,104.673,51.077,162.205
				c4.393-0.732,11.534-4.459,18.423-7.913C417.328,252.031,396.324,191.938,349.332,156.235z"/>
			<path opacity="0.8" fill="#80A249" d="M396.885,294.938c-35.447,8.442-69.104,27.368-92.423,53.933
				c36.898-17.745,76.417-30.035,116.878-36.299C415.859,303.741,406.909,298.007,396.885,294.938z"/>
			<path fill="#80A249" d="M383.415,347.443c0.698,13.872,6.158,27.017,11.855,39.685c1.647,3.665,3.512,7.535,6.958,9.603
				c20.703-24.566,36.075-51.452,32.453-83.373c-0.628-5.532-3.941-14.935-8.602-17.983c-6.353-4.158-19.519-4.399-25.41,0.391
				C386.103,307.604,382.47,328.697,383.415,347.443z"/>
			<path opacity="0.8" fill="#80A249" d="M434.681,313.357c-0.628-5.532-3.941-14.935-8.602-17.983
				c-3.031-1.984-7.616-3.064-12.22-3.144c-7.706,33.802-10.465,68.976-11.892,104.316c0.089,0.059,0.168,0.128,0.26,0.184
				C422.931,372.164,438.303,345.278,434.681,313.357z"/>
			<path opacity="0.8" fill="#80A249" d="M430.426,296.912c-0.384,20.288,55.641,70.987,100.448,49.765
				C504.659,324.304,473.775,303.975,430.426,296.912z"/>
		</g>
	</g>
	<path fill="#FFFFFF" d="M234.075,550.203v13.989c0,0-143.29,43.956-25.826,105.903c0,0,77.378,36.636,209.661,33.307
		c0,0,170.425-2.001,223.666-54.619c0,0,43.497-32.638-22.921-69.272c0,0-11.463,38.297-11.463,39.296l-24.67-63.275l50.524-29.305
		l-9.876,37.297c0,0,88.374,36.639,59.836,89.923c0,0-34.028,77.93-266.213,83.594c0,0-127.889,3.657-219.551-36.97
		c0,0-90.54-33.303-63.091-91.251C134.147,608.819,152.087,572.849,234.075,550.203z"/>
	<path fill="#1A9A8B" d="M239.759,554.18v13.178c0,0-139.934,41.403-25.221,99.753c0,0,75.565,34.508,204.75,31.373
		c0,0,166.435-1.885,218.43-51.448c0,0,42.479-30.742-22.387-65.249c0,0-11.191,36.073-11.191,37.014l-24.092-59.602l49.339-27.602
		l-9.646,35.131c0,0,86.307,34.512,58.437,84.701c0,0-33.232,73.403-259.979,78.738c0,0-124.894,3.445-214.409-34.823
		c0,0-88.417-31.369-61.614-85.951C142.172,609.393,159.693,575.512,239.759,554.18z"/>
</g>
</svg>
