<?xml version="1.0" encoding="utf-8"?>
<!-- Generator: Adobe Illustrator 16.0.0, SVG Export Plug-In . SVG Version: 6.00 Build 0)  -->
<!DOCTYPE svg PUBLIC "-//W3C//DTD SVG 1.1//EN" "http://www.w3.org/Graphics/SVG/1.1/DTD/svg11.dtd">
<svg version="1.1" id="Layer_1" xmlns="http://www.w3.org/2000/svg" xmlns:xlink="http://www.w3.org/1999/xlink" x="0px" y="0px"
	 width="400px" height="400px" viewBox="0 0 400 400" enable-background="new 0 0 400 400" xml:space="preserve">
<path fill="#D3D6D7" d="M73.167,373.362c0,0,150-12.666,236,0c0,0,17.664,0.834,21.664,5.167s-21.166,6-22.166,6
	c0,0-164.17,10.5-228.503,0c0,0-18.667-1.298-20.667-6.065S70.801,373.554,73.167,373.362z"/>
<path fill="#F7B594" d="M180.166,35.951c0,0-4.978,32.521-5.974,38.495c0,0-4.314,15.266,13.938,15.266c0,0,5.753,0.553,7.523,1.217
	c0,0-2.766,19.58,3.318,23.894c0,0,12.168,11.947,24.446,0.664c0,0,4.535-2.876,5.421-15.487c0,0,6.636-54.645,6.857-57.521
	L180.166,35.951z"/>
<path fill="#2A3640" d="M169.443,14.583c0,0,10.619,10.619,44.247,12.389c0,0,24.115-0.221,22.346,15.487l-5.561,44.019
	c0,0-9.041-0.878-17.67-11.497c0,0,9.734-0.664,7.079-11.726c0,0-2.876-7.744-11.062-3.761c0,0,1.549-12.168,2.213-14.159
	c0,0-28.264-3.429-30.752-5.088C180.284,40.247,168.061,36.209,169.443,14.583z"/>
<path fill="none" stroke="#000000" stroke-width="2" stroke-miterlimit="10" d="M179.565,73.673c0,0,6.305,8.628,16.26,1.991"/>
<path fill="none" stroke="#DD9981" stroke-miterlimit="10" d="M192.2,46.953c0,0-0.332,15.1-5.477,20.575
	c0,0,7.633,1.659,9.293,0.996"/>
<path fill="#F7B594" d="M238.572,284.788c0,0-1.981,15.487,4.987,25.996c0,0,16.925,50.662,18.584,54.645l-12.304,4.978
	c0,0-12.586-29.535-18.559-39.822c0,0-16.925-34.179-16.261-39.489L238.572,284.788z"/>
<path fill="#DD9981" d="M158.493,292.159c0,0-6.637-0.44-9.955,11.948c0,0-21.238,65.265-22.566,67.478l10.398,6.195
	c0,0,19.469-44.911,21.238-49.115c0,0,7.744-22.346,16.15-29.425L158.493,292.159z"/>
<path fill="#2A3640" d="M180.278,213.328c0,0,11.494,1.226,13.37,1.47c0,0,14.777,41.154,15.012,42.867
	c0,0-14.308,22.293-18.296,26.824c0,0-7.74,10.9-10.086,14.331c0,0-25.098-9.554-26.506-10.289
	C153.772,288.531,179.34,215.778,180.278,213.328z"/>
<path fill="#4A6A73" d="M184.534,213.328c0,0,23.811,71.267,26.814,79.411c0,0,26.387-8.908,27.888-9.672
	c0,0-5.792-42.251-6.65-46.832c0,0,3.646-12.727,3.003-18.071C235.589,218.164,190.325,213.583,184.534,213.328z"/>
<path fill="#455866" d="M211.241,292.231c0,0,28.316-9.674,29.604-10.182c0,0,0.43,4.836,0,7.635c0,0-12.013,4.837-28.102,9.928
	C212.743,299.612,211.886,295.539,211.241,292.231z"/>
<path fill="#131724" d="M153.575,287.063c0,0,26.334,9.726,27.406,10.633c0,0-2.264,5.576-3.574,7.003
	c0,0-23.949-9.726-26.215-10.504C151.192,294.195,152.741,288.878,153.575,287.063z"/>
<path fill="#2A3640" d="M133.14,383.174l3.65-6.306c0,0-25.222-13.274-26.217-13.274c0,0-3.982-3.318-6.555,0
	c0,0-2.572,3.816,1.826,5.891C105.845,369.484,131.147,382.593,133.14,383.174z"/>
<path fill="#2A3640" d="M264.858,372.247l-2.196-6.946c0,0-26.808,9.681-27.479,10.416c0,0-5.136,0.705-4.417,4.841
	c0,0,1.085,4.473,5.58,2.623C236.347,383.181,263.087,373.326,264.858,372.247z"/>
<path fill="#3D3D42" d="M240.904,221.276c0,0,1.991-16.261,1.66-19.248c0,0-0.161-75.838-14.431-98.404c0,0,0.788-2.795,0.705-3.625
	c0,0,30.429-0.403,33.969,19.508c0,0-6.637,67.256-8.849,77.875C253.959,197.383,254.843,225.259,240.904,221.276z"/>
<path fill="#3D3D42" d="M195.276,101.414c0,0-0.221,5.088,0,6.194c0,0-18.529,14.643-18.805,48.672c0,0-2.213,23.672-3.098,29.203
	c0,0-1.801-43.645,1.738-55.149C175.112,130.334,178.684,112.476,195.276,101.414z"/>
<path fill="#F7B594" d="M139.302,175.579c0,0-2.405-0.912-3.816-0.746c0,0-0.955,6.846,2.826,10.946
	c0.08,0.086,0.16,0.171,0.244,0.254c4.064,4.065,4.812,4.313,5.476,4.812C144.031,190.845,140.215,177.321,139.302,175.579z"/>
<path fill="#131724" d="M176.581,49.008c0,0,10.73,1.659,12.832,1.438c0,0-0.166,1.771-0.388,2.323c0,0,4.701,0.221,5.255,0.553
	c0,0,0-1.328,0-1.659c0,0,12.277,1.438,13.385,1.659c0,0-1.66,8.186-7.301,7.633c0,0-5.088,0.553-6.084-6.417
	c0,0-4.867-0.664-5.531-0.664c0,0-0.996,5.088-6.969,4.646C181.78,58.521,175.253,57.083,176.581,49.008z"/>
<path fill="#D52929" d="M242.989,156.943c0,0,0.221,60.619-2.213,67.919c0,0-57.079-4.646-70.796-5.752
	c0,0,4.646-52.434,5.974-57.301c0,0-3.467-33.643,19.248-55.309c0,0,2.434,13.053,17.477,13.495c0,0,14.518-0.516,15.455-16.372
	c0,0,14.191,3.982,17.952,24.336c0,0,4.646,24.778,6.416,26.991L242.989,156.943z"/>
<path fill="#3D3D42" d="M241.758,113.771c0,0-29.646,22.124-43.142,45.575c0,0-11.726,14.16,8.186,27.655
	c0,0,20.133,14.154,36.947,22.564v7.082c0,0-42.479-18.143-53.761-36.063c0,0-12.832-11.504,12.389-39.823
	c0,0,25.001-28.77,35.398-31.863C237.775,108.899,241.979,110.453,241.758,113.771z"/>
<path fill="#D52929" d="M252.021,155.47c-1.643-0.996-24.776,5.642-24.776,5.642c-0.664-2.655-4.774-22.914-4.774-22.914
	s26.529,8.578,30.032,16.754"/>
<path fill="#F7B594" d="M228.34,152.513c0,0,4.313,25.884,4.646,28.208c0,0-12.444-3.816-28.373-9.293c0,0-9.459-6.471-12.279-8.13
	c0,0-4.813-0.83-8.131,0.166l1.494,10.398c0,0,0,3.54,4.314,4.369c0,0,60.065,24.726,63.052,24.393c0,0-2.322-40.819-4.479-51.272
	L228.34,152.513z"/>
<path fill="#AAAAAA" d="M110.111,54.955c0,0-1.394,2.635,3.816,19.58c0,0,34.015,117.145,34.679,120.464c0,0,0.83,3.235-0.58,3.982
	c-1.411,0.747-2.406-2.157-2.738-3.567c0,0-20.242-69.441-21.128-71.432c0,0-13.066-45.794-14.056-48.007
	c0,0-4.528-13.721-3.865-21.02H110.111z"/>
<path fill="#131724" d="M112.01,53.351c0,1.252-1.015,2.268-2.269,2.268h-3.207c-1.252,0-2.268-1.015-2.268-2.268l0,0
	c0-1.252,1.016-2.268,2.268-2.268h3.207C110.995,51.083,112.01,52.098,112.01,53.351L112.01,53.351z"/>
<circle fill="#AAAAAA" cx="108.165" cy="42.316" r="11.698"/>
<circle fill="#131724" cx="101.776" cy="42.316" r="4.922"/>
<path fill="#F7B594" d="M172.487,191.571c0,0-10.287-4.646-11.283-5.144c0,0-15.431-9.624-17.422-10.454c0,0-2.406-0.58-3.816-1.161
	c0,0-1.244,1.991,4.563,5.476c0,0,2.904,10.537,3.734,12.611c0,0,5.144,1.492,10.177,3.705c0,0,13.053,5.365,14.048,6.195
	C172.487,202.8,172.487,191.958,172.487,191.571z"/>
</svg>
