<svg id="Layer_1" data-name="Layer 1" xmlns="http://www.w3.org/2000/svg" viewBox="0 0 903.67 596.35"><defs><style>.cls-1,.cls-2{fill:#ffdcd6;}.cls-1{opacity:0.94;}</style></defs><title>mega_mendung</title><path class="cls-1" d="M532.75,794.87c-9.59-5-13.43-5-34.54-23.46,0,0-15.35-6.7-26.86-10.05,0,0-24.95-11.73-32.62-16.76l-7.68-5s15.35-16.76,26.86-18.43c0,0,11.51,0,24.95-10.05,0,0,11.51-10.05,21.11-13.41,0,0,5.76-1.68,11.51-8.38,0,0-15.35,0-24.95-6.7s-26.86-18.43-28.78-20.11-23-1.68-28.78-6.7-21.11-15.08-21.11-15.08-13.43-10.05-28.78-3.35-17.27,6.7-17.27,6.7-36.46-21.78-69.08-1.68c0,0-1.34,1.17-3.49,2.9a128.76,128.76,0,0,1-11.07,8l0,0c-4.18,2.65-8.56,4.93-12.11,5.61l-.06,0a9.86,9.86,0,0,1-2,.22c-9.59,0-17.27,6.7-23,15.08,0,0-11.51,6.7-21.11,8.38,0,0,9.59,10.05,15.35,13.41s9.59,10.05,15.35,10.05,19.19,3.35,24.95,6.7,19.19,11.73,19.19,11.73-15.35,15.08,0,31.84l13.43,10.05s-15.35,0-19.19,5-15.35,15.08-19.19,16.76-17.27,8.38-21.11,8.38c0,0,24.95,11.73,28.78,15.08s11.51,11.73,13.43,13.41,21.11,1.68,23,3.35,15.35,10.05,21.11,11.73l5.76,1.68s-9.59,10.05,0,21.78c0,0,32.62,35.19,86.35,13.41,0,0,13.43-15.08,19.19-16.76s26.86-3.35,28.78-3.35,13.43-5,21.11-18.43a25.35,25.35,0,0,1,21.11-6.7s9.59-15.08,23-15.08L561.53,815S542.34,799.89,532.75,794.87ZM371.56,650.76s19.19-16.76,38.38-5c0,0,15.35,16.76,30.7,18.43,0,0,21.11-1.68,32.62,13.41,0,0,19.19,15.08,26.86,15.08,0,0-23,11.73-30.7,20.11,0,0-30.7,1.68-38.38,15.08l-7.68,8.38s-32.62-3.35-40.3,0c0,0-15.35-5-17.27-16.76s3.84-20.11,9.59-21.78,17.27-3.35,23,5-3.84,15.08-7.68,10.05-9.59-5-5.76,1.68c0,0,3.84,5,9.59,5s9.59,0,11.51-3.35a15,15,0,0,0,1.92-6.7s1.92,0,5.76,1.68S431,707.73,433,707.73s11.51-5,17.27-6.7,17.27-3.35,17.27-3.35a68.3,68.3,0,0,0-5.76-6.7c-1.92-1.68-30.7-11.73-30.7-11.73a53.33,53.33,0,0,1-19.19-8.38c-9.59-6.7-17.27-11.73-26.86-10.05s-13.43,3.35-13.43,3.35Zm1.92,88.81h-1.92c-11.51-1.68-40.3,15.08-40.3,15.08-11.51-8.38-9.59-20.11-9.59-20.11s15.35,1.68,17.27-1.68,5.76-3.35,13.43-3.35S373.48,739.57,373.48,739.57Zm3.84-72.05c11.51-5,24.95,5,24.95,5a57.53,57.53,0,0,0,23,10.05c15.35,1.68,28.78,11.73,28.78,11.73-9.59,0-26.86,10.05-26.86,10.05-15.35,5-21.11-1.68-21.11-1.68a21.56,21.56,0,0,0-6.75-8.46,25.64,25.64,0,0,0-10.52-4.52,33.64,33.64,0,0,0-9.59-.42c-1.8.15-3.32.4-4,.54-7.37,1.51-10.88,7.47-17.06,12.87-5.76,5-13.43,5-13.43,5-11.51-1.68-17.27-6.7-17.27-6.7-11.51-8.38-24.95-6.7-24.95-6.7-19.19,0-26.86-8.38-26.86-8.38,11.51,1.68,26.86-6.7,26.86-6.7,11.51-5,23-1.68,23-1.68,21.11,16.76,36.46,3.35,36.46,3.35C365.81,675.9,377.32,667.52,377.32,667.52Zm-101.7,36.86s-34.54-6.7-40.3-20.11c0,0,11.51-1.68,17.27-10.05s9.59-8.38,15.35-10.05,36.46-18.43,36.46-18.43,15.35-6.7,30.7-5,30.7,8.38,30.7,23.46c0,0-5.76,20.11-26.86,15.08,0,0-13.43-6.7,0-15.08a9.26,9.26,0,0,1,9.59,3.35s7.68,5,5.76-3.35c0,0-7.68-13.41-21.11-3.35,0,0-7.68,8.38-5.76,11.73,0,0-13.43-3.35-21.11,0,0,0-19.19,8.38-24.95,8.38H266s7.68,11.73,19.19,15.08a94.68,94.68,0,0,0,24.95,3.35c1.92,0,13.43,6.7,13.43,6.7s11.51,6.7,15.35,6.7,13.43-1.68,15.35-1.68h1.92v13.41H342.78s-3.84-13.41-23-10.05c0,0-11.51,3.35-15.35,6.7C304.4,721.14,287.13,707.73,275.62,704.38Zm23.28,40.82a15.33,15.33,0,0,1-.25-4c.06-1.47,1.07-14.71,13.43-20.11,3.84-1.68,19.19-5,24.95,3.35,0,0,1.92,6.7-7.68,5,0,0-3.84,1.68-3.84-5a9.84,9.84,0,0,0-5.76,0,8.59,8.59,0,0,0-5.76,8.38,18.59,18.59,0,0,0,0,8.38c1.09,4.62,3.72,7.69,5.76,10.05a37,37,0,0,0,7.68,6.7l-7.68,5C316.51,761.87,301.12,756.06,298.89,745.2Zm220.42,81.5S502,820,480.94,850.16c0,0-32.62-5-48,16.76,0,0-32.62,26.81-76.76,0,0,0-15.35-15.08-9.59-21.78s19.19-15.08,34.54-10.05c0,0,23,6.7,13.43,21.78,0,0-9.59,5-15.35-5,0,0-7.68-6.7-7.68,3.35,0,0,9.59,13.41,21.11,10.05,0,0,17.27-3.35,11.51-18.43,0,0,23,0,30.7-11.73,0,0,5.76-10.05,19.19-8.38,0,0,13.43,0,24.95-11.73,0,0,11.51-8.38,19.19-3.35l1.92,3.35s5.76-8.38-9.59-16.76c0,0-26.86-5-40.3-18.43,0,0-32.62-6.7-42.22-11.73s-34.54-6.7-42.22,0-11.51,20.11-44.13,23.46c0,0,3.84,11.73,24.95,15.08,0,0,5.76,3.35,15.35,11.73,0,0,21.11,13.41,38.38,6.7s23-23.46,5.76-30.16c0,0-11.51-10.05-24.95,0,0,0-1.92,21.78,15.35,15.08,0,0,7.68-3.35,3.84-6.7s-3.84,1.68-3.84,1.68-7.68,5-9.59-3.35,13.43-5,13.43-5,11.51,3.35,5.76,13.41-13.43,15.08-38.38,5c0,0-15.35-11.73-26.86-15.08s-13.43-5-13.43-5,24.95-5,32.62-13.41,28.78-16.76,40.3-11.73,28.78,11.73,36.46,11.73a14.92,14.92,0,0,1,11.51,5s13.43,10.05,23,11.73,19.19,3.35,23,8.38c0,0-17.27-1.68-24.95,8.38,0,0-3.84,6.7-24.95,6.7,0,0-7.68,0-17.27,11.73,0,0-5.76,8.38-26.86,6.7,0,0-15.35-20.11-53.73-5h-3.84A31.72,31.72,0,0,1,321.67,825l-21.11-1.68S275.62,798.22,266,798.22c0,0,21.11-13.41,28.78-18.43s19.19-5,26.86-10.05S348.54,751.3,360,747.95s46.05-11.73,67.16-3.35c0,0,30.7,21.78,61.4,28.49,0,0,17.27,16.76,34.54,21.78l24.95,15.08S525.07,815,519.32,826.7Z" transform="translate(-3.98 -467.38)"/><path class="cls-1" d="M293.23,645.28a128.76,128.76,0,0,1-11.07,8l0,0-.9.49-3.09,1.54-1.44.67-1.27.6-1.27.55-23.51-14.76s3.84-13.41-11.51-11.73c0,0-13.43,0-7.68,10.05a7.06,7.06,0,0,0,5.76,3.35c3.84,0,0-5,0-5s-1.92-6.7,5.76-5c0,0,7.68,6.7,1.92,13.41,0,0-13.43,1.68-19.19-3.35s-11.51-13.41-9.59-16.76l-1.92-1.68s-13.43-11.73-15.35-18.43c0,0,28.78,3.35,32.62,5l3.84,1.68s15.35-11.73,26.86-5c0,0,17.27,8.38,3.84,16.76,0,0-13.43,3.35-15.35-5,0,0,1.92-3.35,3.84-1.68s11.51,1.68,5.76-3.35c0,0-9.59-3.35-15.35,1.68,0,0-1.92,6.7,3.84,10.05,0,0,11.51,5,17.27,3.35L291,644.06Z" transform="translate(-3.98 -467.38)"/><path class="cls-1" d="M266.95,547.32l-1.15,1-1.48,1.14-1.23.89-1.11.75-1.71,1.09-1.71,1-2.05,1.16-1.21.64a128.76,128.76,0,0,0,11.07-8Z" transform="translate(-3.98 -467.38)"/><path class="cls-1" d="M282.33,868.34s11.51-5,17.27-3.35c0,0,7.68,1.68,3.84-6.7,0,0-13.43-15.08-32.62-15.08l-19.19-15.08s-17.27,0-17.27-1.68-9.59-6.7-9.59-6.7,3.84-18.43-13.43-25.13c0,0-21.11-6.7-26.86-16.76,0,0,11.51-15.08,21.11-18.43,0,0,26.86,1.68,32.62-1.68S253.55,746,242,736c0,0-11.51-11.73-28.78-13.41l-5.76-1.68s-30.7-35.19-67.16-11.73c0,0-5.76,8.38-32.62,8.38,0,0-32.62,0-46.05,15.08,0,0,17.27,1.68,21.11,8.38S100,757.74,100,766.12c0,0-1.92,8.38,21.11,15.08,0,0-26.86,3.35-36.46,11.73,0,0-17.27,8.38-32.62,3.35,0,0,9.59,11.73,13.43,20.11a76.79,76.79,0,0,0,7.68,13.41s-17.27,16.76-40.3,16.76a101.61,101.61,0,0,0,9.36,13.82,113.88,113.88,0,0,0,25.18,23,43.62,43.62,0,0,0,26.81,13.52A47,47,0,0,0,125,890.12s28.78,26.81,65.24,5c0,0,36.46,8.38,49.89-11.73l17.27-1.68s15.35,18.43,13.43,20.11-15.35,18.43,9.59,26.81c0,0,26.86,5,26.86-23.46C307.28,905.2,297.69,875,282.33,868.34ZM107.72,767.8C109.64,751,75.1,729.26,75.1,729.26a36.5,36.5,0,0,1,13.66-6.07,39.6,39.6,0,0,1,13.2-.64,90,90,0,0,0,39.11-5.45,79.78,79.78,0,0,0,12.7-6.28c15.35-15.08,53.73,15.08,53.73,15.08a110.55,110.55,0,0,1,15.35,5,104.3,104.3,0,0,1,13.43,6.7c3.15,3.65,4,8.29,1.92,11.73-2.94,4.91-11.69,7.19-19.19,3.35-3.09.57-6.22,1.12-9.36,1.68-3.3.57-6.56,1.14-9.82,1.68a59.47,59.47,0,0,1-17.27,13.41,62.14,62.14,0,0,1-7.68,3.35c-36.46-3.35-24.95-25.13-24.95-25.13,13.43-16.76,28.78-8.38,28.78-8.38,7.68,13.41-7.68,8.38-7.68,8.38-5.76-8.38-9.59,0-9.59,0-1.92,13.41,19.19,8.38,19.19,8.38,19.19-15.08-3.84-23.46-3.84-23.46-1-.18-17.12-3-27.59,6.7a20.53,20.53,0,0,0-1,30c6.54,7.1,17.58,10.32,28.61,8.51-1.92,6.7,19.19,16.76,19.19,16.76,19.19,6.7,23,20.11,23,20.11-34.54-18.43-57.57-5-57.57-5,0-5-17.27-13.41-17.27-13.41-9.59,0-15.35-11.73-15.35-15.08S107.72,767.8,107.72,767.8ZM123.07,860c-7.68-13.41-32.62-8.38-32.62-8.38-21.11,15.08-1.92,25.13-1.92,25.13,17.27,6.7,17.27-10.05,17.27-10.05-1.92-3.35-5.76,0-5.76,0-7.68,6.7-9.59,1.68-9.59,1.68-1.92-11.73,13.43-11.73,13.43-11.73C119.23,860,123.07,875,123.07,875c-5.76,23.46-30.7,15.08-30.7,15.08-13.43-3.35-49.89-40.22-49.89-40.22,11.51,0,23-6.7,23-6.7,13.43-11.73,38.38-26.81,38.38-26.81,24.95-8.38,28.78,15.08,28.78,15.08-3.84,13.41-17.27,8.38-17.27,8.38-5.76-15.08,7.68-6.7,7.68-6.7,5.76,1.68,3.84-1.68,3.84-1.68-3.84-8.38-11.51-6.7-11.51-6.7-17.27,3.35-3.84,18.43-3.84,18.43,21.11,11.73,26.86-10.05,26.86-10.05C142.26,808,117.31,808,105.8,809.69s-26.86,15.08-26.86,15.08L65.5,803c9.59,3.35,30.7-10.05,30.7-10.05,11.51-8.38,28.78-6.7,28.78-6.7-1.92,6.7,11.51,13.41,11.51,13.41,9.59,0,21.11,13.41,21.11,13.41-13.43,6.7-3.84,25.13-3.84,25.13,21.11,20.11,38.38,1.68,38.38,1.68,7.68-1.68,44.13,18.43,44.13,18.43L220.93,860c-15.35,8.38-26.86,8.38-26.86,8.38-9.59-6.7-24.95-1.68-24.95-1.68C142.26,880.07,123.07,860,123.07,860Zm113.21,18.43c-9.59,16.76-49.89,11.73-49.89,11.73-34.54,16.76-55.65-5-55.65-5V871.69s19.19,8.38,32.62,1.68,24.95-1.68,30.7,1.68,30.7-11.73,30.7-11.73h21.11c-1.92-15.08-51.81-26.81-51.81-26.81,7.68-10.05-7.68-16.76-7.68-16.76C167.2,818.07,171,831.47,171,831.47c3.84,6.7,7.68-1.68,7.68-1.68,1.92-5,5.76-1.68,5.76-1.68,5.76,6.7-3.84,13.41-3.84,13.41-23,3.35-23-15.08-23-15.08,7.68-15.08,21.11-13.41,34.54-15.08s42.22,21.78,42.22,21.78h15.35a45.13,45.13,0,0,0,23,15.08c11.51,3.35,24.95,11.73,24.95,11.73l-17.27,1.68C270.82,875,236.28,878.39,236.28,878.39Zm61.42,37.07a19.67,19.67,0,0,1-9.61,6.5,16.29,16.29,0,0,1-8.63-1.68,13.06,13.06,0,0,1-6.72-8.38s1.92-5,5.76-1.68l3.84,3.35s7.68,3.35,3.84-5l-24.95-28.49,15.35-8.38s21.11,18.43,23,28.49C300.35,904.06,301.72,910.06,297.7,915.46Z" transform="translate(-3.98 -467.38)"/><path class="cls-1" d="M792.8,607.46l-15.86-1.64c-12.34,0-21.15-14.72-21.15-14.72a22.57,22.57,0,0,1-19.39-6.54c-7.05-13.08-17.63-18-19.39-18s-21.15-1.64-26.44-3.27-17.63-16.35-17.63-16.35C623.59,525.68,593.63,560,593.63,560a16.53,16.53,0,0,0,0,21.26l-5.29,1.64c-5.29,1.64-17.63,9.81-19.39,11.45s-19.39,1.64-21.15,3.27-8.81,9.81-12.34,13.08S509,625.45,509,625.45c3.53,0,15.86,6.54,19.39,8.18S542.51,645.07,546,650s17.63,4.91,17.63,4.91l-12.34,9.81c-14.1,16.35,0,31.07,0,31.07S539,703.95,533.7,707.22s-17.63,6.54-22.91,6.54-8.81,6.54-14.1,9.81-14.1,13.08-14.1,13.08c8.81,1.64,19.39,8.18,19.39,8.18,5.29,8.18,12.34,14.72,21.15,14.72a8.54,8.54,0,0,1,1.87.21l.05,0c3.26.67,7.28,2.89,11.12,5.48l0,0a118.8,118.8,0,0,1,10.17,7.8c2,1.68,3.21,2.83,3.21,2.83,30,19.63,63.45-1.64,63.45-1.64s1.76,0,15.86,6.54,26.44-3.27,26.44-3.27,14.1-9.81,19.39-14.72,24.68-4.91,26.44-6.54,17.63-13.08,26.44-19.63,22.91-6.54,22.91-6.54c-5.29-6.54-10.58-8.18-10.58-8.18-8.81-3.27-19.39-13.08-19.39-13.08C708.2,699,697.62,699,697.62,699c-10.58-1.64-24.68-18-24.68-18l7.05-4.91c7.05-4.91,30-16.35,30-16.35,10.58-3.27,24.68-9.81,24.68-9.81,19.39-18,22.91-18,31.73-22.9S792.8,607.46,792.8,607.46ZM618.3,754.65s3.53,1.64,12.34,3.27,15.86-3.27,24.68-9.81a47.41,47.41,0,0,1,17.63-8.18s26.44-9.81,28.2-11.45a65.79,65.79,0,0,0,5.29-6.54s-10.58-1.64-15.86-3.27-14.1-6.54-15.86-6.54-14.1-4.91-17.63-3.27-5.29,1.64-5.29,1.64a15.32,15.32,0,0,0-1.76-6.54c-1.76-3.27-5.29-3.27-10.58-3.27s-8.81,4.91-8.81,4.91c-3.53,6.54,1.76,6.54,5.29,1.64s12.34,1.64,7.05,9.81-15.86,6.54-21.15,4.91-10.58-9.81-8.81-21.26,15.86-16.35,15.86-16.35c7.05,3.27,37,0,37,0l7.05,8.18c7.05,13.08,35.25,14.72,35.25,14.72,7.05,8.18,28.2,19.63,28.2,19.63-7.05,0-24.68,14.72-24.68,14.72-10.58,14.72-30,13.08-30,13.08-14.1,1.64-28.2,18-28.2,18-17.63,11.45-35.25-4.91-35.25-4.91Zm-17.63-63.78c-7.05,0-10.58,0-12.34-3.27S572.48,686,572.48,686a22,22,0,0,1,8.81-19.63s26.44,16.35,37,14.72h1.76S607.73,690.87,600.68,690.87Zm8.81,47.43s-14.1-13.08-33.49,3.27c0,0-10.58,3.27-21.15-1.64,0,0-14.1-8.18-24.68-6.54,0,0,7.05-8.18,24.68-8.18a33.59,33.59,0,0,0,22.91-6.54s5.29-4.91,15.86-6.54A20,20,0,0,1,606,717c5.68,5.27,8.9,11.09,15.67,12.56a37.26,37.26,0,0,0,3.72.52,29.11,29.11,0,0,0,8.81-.41,22.81,22.81,0,0,0,9.66-4.42A20.86,20.86,0,0,0,650,717s5.29-6.54,19.39-1.64c0,0,15.86,9.81,24.68,9.81,0,0-12.34,9.81-26.44,11.45a51.13,51.13,0,0,0-21.15,9.81s-12.34,9.81-22.91,4.91C623.59,751.38,613,743.2,609.49,738.29ZM556.61,699c3.53,3.27,14.1,6.54,14.1,6.54,17.63,3.27,21.15-9.81,21.15-9.81H604.2v13.08h-1.76c-1.76,0-10.58-1.64-14.1-1.64s-14.1,6.54-14.1,6.54-10.58,6.54-12.34,6.54A82.12,82.12,0,0,0,539,723.57c-10.58,3.27-17.63,14.72-17.63,14.72h14.1c5.29,0,22.91,8.18,22.91,8.18,7.05,3.27,19.39,0,19.39,0-1.76,3.27,5.29,11.45,5.29,11.45,12.34,9.81,19.39-3.27,19.39-3.27,1.76-8.18-5.29-3.27-5.29-3.27a8.19,8.19,0,0,1-8.81,3.27c-12.34-8.18,0-14.72,0-14.72C607.73,735,613,754.65,613,754.65c0,14.72-14.1,21.26-28.2,22.9s-28.2-4.91-28.2-4.91-28.2-16.35-33.49-18-8.81-1.64-14.1-9.81S493.16,735,493.16,735c5.29-13.08,37-19.63,37-19.63C540.75,712.13,556.61,699,556.61,699Zm14.1-40.89,7.05,4.91a34.71,34.71,0,0,0-7.05,6.54,23,23,0,0,0-5.29,9.81,19.25,19.25,0,0,0,0,8.18,8.38,8.38,0,0,0,5.29,8.18,8.53,8.53,0,0,0,5.29,0c0-6.54,3.53-4.91,3.53-4.91,8.81-1.64,7.05,4.91,7.05,4.91-5.29,8.18-19.39,4.91-22.91,3.27-11.35-5.27-12.29-18.19-12.34-19.63a15.88,15.88,0,0,1,.23-3.86C553.6,665,567.74,659.28,570.71,658.16Zm209.75-45.79-22.91,14.72c-15.86,4.91-31.73,21.26-31.73,21.26-28.2,6.54-56.4,27.8-56.4,27.8-19.39,8.18-51.11,0-61.69-3.27s-28.2-16.35-35.25-21.26-17.63-4.91-24.68-9.81-26.44-18-26.44-18c8.81,0,31.73-24.53,31.73-24.53l19.39-1.64c8.81-9.81,19.39-9.81,19.39-9.81h3.53c35.25,14.72,49.35-4.91,49.35-4.91,19.39-1.64,24.68,6.54,24.68,6.54,8.81,11.45,15.86,11.45,15.86,11.45,19.39,0,22.91,6.54,22.91,6.54,7.05,9.81,22.91,8.18,22.91,8.18-3.53,4.91-12.34,6.54-21.15,8.18s-21.15,11.45-21.15,11.45a13.46,13.46,0,0,1-10.58,4.91c-7.05,0-22.91,6.54-33.49,11.45s-30-3.27-37-11.45-30-13.08-30-13.08,1.76-1.64,12.34-4.91,24.68-14.72,24.68-14.72c22.91-9.81,30-4.91,35.25,4.91s-5.29,13.08-5.29,13.08-14.1,3.27-12.34-4.91,8.81-3.27,8.81-3.27,0,4.91,3.53,1.64-3.53-6.54-3.53-6.54c-15.86-6.54-14.1,14.72-14.1,14.72,12.34,9.81,22.91,0,22.91,0,15.86-6.54,10.58-22.9-5.29-29.44s-35.25,6.54-35.25,6.54c-8.81,8.18-14.1,11.45-14.1,11.45-19.39,3.27-22.91,14.72-22.91,14.72,30,3.27,33.49,16.35,40.54,22.9s30,4.91,38.78,0,38.78-11.45,38.78-11.45c12.34-13.08,37-18,37-18,14.1-8.18,8.81-16.35,8.81-16.35l-1.76,3.27c-7.05,4.91-17.63-3.27-17.63-3.27C706.43,596,694.09,596,694.09,596a17.45,17.45,0,0,1-17.63-8.18c-7.05-11.45-28.2-11.45-28.2-11.45,5.29-14.72-10.58-18-10.58-18-10.58-3.27-19.39,9.81-19.39,9.81,0,9.81,7.05,3.27,7.05,3.27,5.29-9.81,14.1-4.91,14.1-4.91,8.81,14.72-12.34,21.26-12.34,21.26-14.1,4.91-26.44-3.27-31.73-9.81s8.81-21.26,8.81-21.26c40.54-26.17,70.5,0,70.5,0,14.1,21.26,44.06,16.35,44.06,16.35C738.16,602.55,754,596,754,596,759.31,607.46,780.46,612.36,780.46,612.36Z" transform="translate(-3.98 -467.38)"/><path class="cls-2" d="M906.93,914.76C801.39,874.54,756.3,885.43,756.3,885.43,712.16,900.51,744.78,924,744.78,924c-6.72,17.59-50.85,14.24-50.85,14.24-9.59-1.68-28.78,6.7-28.78,6.7-5.76-10.05-32.62-13.41-32.62-13.41l-38.38-18.43c-24.95-16.76-49.89,5-49.89,5C527,938.22,507.8,943.24,507.8,943.24c-5.76,0-23,5-26.86,6.7s-19.19,6.7-19.19,6.7c-3.84-3.35-21.11-33.51-21.11-33.51-1.92-21.78-40.3-31.84-40.3-31.84-40.3-3.35-42.22,20.11-42.22,20.11-5.76,26.81,17.27,30.16,24.95,28.49s9.59,8.38,9.59,8.38c-19.19,15.08,1.92,21.78,1.92,21.78,9.59,0,3.84-8.38,3.84-8.38-7.68-5,5.76-8.38,5.76-8.38,19.19,13.41,5.76,25.13-7.68,28.49s-38.38-18.43-38.38-18.43H342.78c-13.43-21.78-40.3-1.68-40.3-1.68-13.43,13.41-67.16,36.86-67.16,36.86,5.76,1.68,19.19,11.73,19.19,11.73,28.78,21.78,57.57,8.38,57.57,8.38,17.27-8.38,28.78,5,28.78,5,15.35,13.41,34.54,8.38,34.54,8.38,11.51-5,44.13-23.46,44.13-23.46,44.13-1.68,42.22-28.49,42.22-28.49,5.76,10.05,24.95,15.08,24.95,15.08-13.43,38.54,13.43,58.65,13.43,58.65,28.78,20.11,46.05,3.35,46.05,3.35,13.43-21.78-13.43-30.16-13.43-30.16l-3.84-16.76,23,8.38c11.51,11.73,63.32,13.41,63.32,13.41,30.7,1.68,38.38-3.35,38.38-3.35l36.46-20.11c24.95-11.73,78.67-21.78,78.67-21.78,24.95-1.68,30.7-11.73,30.7-11.73,13.43-11.73,24.95-16.76,24.95-16.76,26.86-8.38,38.38-25.13,38.38-25.13,9.59-1.68,28.78-11.73,28.78-11.73C912.69,918.11,906.93,914.76,906.93,914.76ZM669,949.95c11.51-8.38,38.38-5,38.38-5,46.05-3.35,44.13-18.43,44.13-18.43,36.46,6.7,32.62-11.73,32.62-11.73,5.76-3.35,21.11,8.38,21.11,8.38,3.84-1.68,21.11-1.68,21.11-1.68-7.68,0-17.27,11.73-17.27,11.73-7.68,11.73-24.95,11.73-24.95,11.73-11.51-1.68-38.38,16.76-38.38,16.76-17.27,0-36.46,10.05-36.46,10.05-13.43,11.73-46.05,10.05-46.05,10.05-11.51,0-30.7,15.08-30.7,15.08-11.51,10.05-30.7,5-30.7,5-13.43,0-72.92-25.13-72.92-25.13,7.68,0,17.27-11.73,17.27-11.73,5.76-8.38,11.51,0,11.51,0,0,18.43,32.62,23.46,32.62,23.46,19.19,3.35,32.62-10.05,32.62-10.05,3.84-6.7,17.27-13.41,17.27-13.41C667.07,961.68,669,949.95,669,949.95ZM448.32,993.51s-3.84,6.7-28.78,10.05a64.18,64.18,0,0,0-19.19,6.7c-7.46,4.07-8.08,6.53-15.35,10.05-4.39,2.13-12.63,6.12-23,5a35.46,35.46,0,0,1-19.19-8.38,34.38,34.38,0,0,0-16.54-6.28,36.37,36.37,0,0,0-21.84,4.61s-28.78,5-55.65-15.08c0,0,53.73-28.49,57.57-33.51,0,0,24.95-16.76,30.7,1.68,0,0,1.92,13.41-11.51,13.41,0,0-9.59-6.7-5.76,5,0,0,13.43,10.05,24.95-6.7,0,0,0-15.08,11.51-11.73,0,0,23,18.43,28.78,18.43s28.78,1.68,36.46-16.76c0,0,7.68-20.11-21.11-23.46,0,0-3.84-8.38-7.68-8.38,0,0,15.35-11.73,9.59-20.11s-19.19-3.35-24.95,1.68c0,0-3.84,5,3.84,5,0,0,15.35-10.05,15.35-1.68s-17.27,13.41-21.11,11.73a20,20,0,0,1-9.9-10c-2.84-8.23,1.88-18.08,11.82-25.22,5.43-1.09,20-3.28,34.54,3.35,8.81,4,13.89,9.6,17.27,13.41a57.12,57.12,0,0,1,13.43,26.81s9.59,20.11,24.95,23.46C467.51,966.7,454.07,973.4,448.32,993.51Zm88.27,38.54s19.19,11.73,1.92,23.46c0,0-24.95,6.7-42.22-16.76,0,0-7.68-13.41-3.84-40.22,0,0,17.27,11.73,26.86,10.05,0,0,1.92,16.76,5.76,18.43,0,0-19.19,8.38,0,20.11,0,0,13.43,0,3.84-6.7C528.91,1040.43,521.24,1030.38,536.59,1032.05ZM855.12,931.51a148.59,148.59,0,0,0-26.86,20.11S812.9,955,801.39,966.7s-24.95,13.41-26.86,13.41-42.22,8.38-42.22,8.38-44.13,8.38-65.24,26.81S621,1025.35,609.5,1027s-48-10.05-48-10.05-32.62-15.08-38.38-15.08-11.51-1.68-24.95-6.7-30.7-20.11-30.7-20.11l9.59-6.7c13.43-6.7-7.68-8.38-7.68-8.38s30.7-10.05,40.3-11.73,26.86-15.08,40.3-26.81,30.7-8.38,32.62-6.7,44.13,21.78,53.73,23.46,24.95,11.73,24.95,11.73c-5.76,6.7-17.27,8.38-17.27,8.38-5.76-1.68-17.27,8.38-17.27,8.38-13.43,18.43-34.54,15.08-34.54,15.08C573,981.78,563.45,960,563.45,960a14.74,14.74,0,0,1,5.32-10.82c5.76-4.64,15.37-5.18,23.47-.9,4.47,2,5.78,6.89,3.32,10.05-2.25,2.88-7.2,3.82-11,1.68-11.51-5-5.76,5-5.76,5,9.59,8.38,21.11-1.68,21.11-1.68,1.17-1.16,4-4.24,3.91-8.43,0-5.81-5.45-11.39-13.51-13.35a38.46,38.46,0,0,0-13.22-1.34,37.1,37.1,0,0,0-15.56,4.69,19.34,19.34,0,0,0-5,8.18,17,17,0,0,0-.73,5.23c-5.76-3.35-11.51,0-11.51,0a32.31,32.31,0,0,1-19.19,11.73c-13.43,3.35-3.84,8.38-3.84,8.38,3.84,8.38,67.16,26.81,67.16,26.81,19.19,8.38,44.13,0,48-3.35s23-15.08,23-15.08c9.59,1.68,40.3-1.68,46.05-6.7s24.95-11.73,34.54-10.05,24.95-11.73,24.95-11.73,5.76-8.38,19.19-8.38,19.19-5,19.19-5a56.77,56.77,0,0,1,15.35-11.73c9.59-5,21.11-10.05,21.11-10.05-7.68-8.38-32.62-5-32.62-5-9.59-10.05-23-8.38-23-8.38,0-1.68-7.68-8.38-7.68-8.38-17.27-5-19.19,8.38-19.19,8.38,7.68,10.05,9.59-3.35,9.59-3.35,19.19,0,5.76,15.08,5.76,15.08-24.95,6.7-32.62-13.41-32.62-13.41,5.76-25.13,61.4-16.76,67.16-15.08s88.27,21.78,88.27,21.78A163.53,163.53,0,0,0,855.12,931.51Z" transform="translate(-3.98 -467.38)"/><path class="cls-2" d="M686.52,847.83c-4.1-6.8-19.61-9.15-19.61-9.15-11.27,1-11.93,18.07-11.93,18.07l-10.57-.92c.83-5.36,12.07-21.48,12.07-21.48l-14.11-6.26c-5.24-9.71-20-14-20-14-10.7,2.49-22.41-1.35-22.41-1.35C588.21,808.88,582,823,582,823c-1.8,14.13-21.28,25.91-21.28,25.91-1.1,12.18-18.53,27.35-18.53,27.35a57.89,57.89,0,0,1,17.12.89c8,1.91,22.14,8.17,22.14,8.17,10.7-2.49,28,.84,28,.84,16.94,13.55,30.18,10.07,37.48-1.16s18.87-4,35.34-10.4,16.43-21.5,16.43-21.5C697.52,853.62,686.52,847.83,686.52,847.83ZM665,871.3s-18.17,2-22.24,10.33-17.3,11.77-27.61,4-29.74-5.21-31-4.72-25.11-12-28.35-9.11l9.53-20.49s17.3-11.77,18.27-20.54c0,0,5.6-15.61,15.47-12.73,0,0,15.37,5.77,19.87,2.34,0,0,14.94.9,20.18,10.61l9.74,6.28s-7,19.51-12.07,21.48-13.37,6.88-23.81,2.55-27.91-4.24-27.91-4.24,16.6-9.82,18.57-12.26,7.87-9.77,12.8-8.34,12.71,10.16,9.47,13.1-7.6,3-8.6-3.37c0,0,4.37,0,1.4-3.9s-6.9,1-6.47,5.87,4.54,11.66,13.41,8.21,4.46-18.52.8-20.45-12.14-8.7-21.84.11-9.83,12.22-22.5,17.15c0,0-5.77,3.92-5.2,5.38s7.34,3.86,13.54,4.8,20.57.39,24.81,3.77,22.28,4.76,26.47-6.95c0,0,13.54,4.8,16.77,1.86,0,0,15.24,9.17,17-5,0,0-1.57-7.78-5.37-6.3,0,0-3.8,1.48-.83,5.36,0,0,.43,4.87-5.77,3.92,0,0-8.34-10.18,0-15.09,0,0,8.87-3.45,19.17,4.29,0,0,9.74,6.28,11.57,7.25C694.29,856.55,685.46,875.09,665,871.3Z" transform="translate(-3.98 -467.38)"/><path class="cls-1" d="M903,731.38c0-20.28-18.79-16.7-18.79-16.7-17.44,6-8.05,17.89-6.71,19.08s-9.39,14.31-9.39,14.31l-12.08-1.19c-9.39-14.31-34.89-8.35-34.89-8.35-25.5-15.5-45.62,3.58-45.62,3.58A32.42,32.42,0,0,0,754,737.26a30.36,30.36,0,0,0-18.75,9.62,80.15,80.15,0,0,0-17.61,16.4,72.41,72.41,0,0,0-6.55,9.84c16.1,0,28.18,11.93,28.18,11.93a54.88,54.88,0,0,0-5.37,9.54c-2.68,6-9.39,14.31-9.39,14.31,10.73-3.58,22.81,2.39,22.81,2.39,6.71,6,25.5,8.35,25.5,8.35-16.1,4.77-14.76,10.73-14.76,10.73,0,6-9.39,13.12-12.08,17.89s-14.76,6-14.76,6C740.67,865,763.48,865,763.48,865c18.79,0,22.81,6,22.81,6,25.5,16.7,47-8.35,47-8.35l4-1.19c12.08-1.19,20.13-9.54,20.13-9.54,8.05-7.16,1.34-13.12-2.68-15.5s-22.81-1.19-22.81-1.19C825.2,832.75,817.15,822,817.15,822c4-7.16,18.79-11.93,18.79-11.93,12.08-4.77,9.39-17.89,9.39-17.89s6.71-3.58,6.71-4.77,12.08-1.19,12.08-1.19l13.42-10.73c13.42,0,22.81-10.73,22.81-10.73,2.68-6-2.68-4.77-2.68-4.77-4,1.19-12.08-2.39-12.08-2.39C896.32,752.84,903,731.38,903,731.38ZM778.24,819.63c0-2.39,4-10.73,10.73-10.73,0,0,12.08-6,12.08-9.54,0,0,16.1,9.54,40.26-3.58,0,0-2.68,9.54-16.1,14.31,0,0-14.76,7.16-13.42,11.93-7.72-1.29-15.43,1-20,6.06a16.34,16.34,0,0,0-4.15,11.83,16.14,16.14,0,0,0,4.86,9.54c7.33,6.94,18.6,4.9,19.3,4.77,0,0,16.1-6,2.68-16.7,0,0-14.76-3.58-13.42,6,0,0,2.68,6,6.71,0,0,0,10.73-3.58,5.37,6,0,0-10.73,6-20.13-6,0,0-8.05-15.5,17.44-17.89a43.06,43.06,0,0,1,5.37,2.39,41.71,41.71,0,0,1,12.08,9.54c2.28.38,4.56.79,6.87,1.19s4.39.79,6.55,1.19c5.25-2.73,11.37-1.11,13.42,2.39,1.44,2.44.86,5.75-1.34,8.35a72.44,72.44,0,0,1-9.39,4.77A76.35,76.35,0,0,1,833.25,859s-26.84,21.47-37.57,10.73a55.4,55.4,0,0,0-8.88-4.47,62,62,0,0,0-27.35-3.88,27.22,27.22,0,0,1-9.23-.45,25.32,25.32,0,0,1-9.55-4.32s24.15-15.5,22.81-27.43C763.48,829.18,778.24,822,778.24,819.63Zm28.18-60.83s10.73,3.58,17.44-1.19c0,0,8.05,0,18.79,6l10.73,1.19s-25.5,14.31-30.86,13.12c0,0-12.08-13.12-26.84,1.19,0,0-6.71,13.12,2.68,17.89,0,0-8.05,9.54-14.76,9.54,0,0-9.39,4.77-8.05,9.54,0,0-12.08,1.19-20.13-4.77,0,0-14.76-9.54-21.47-7.16l9.39-15.5s10.73,9.54,18.79,10.73,25.5,1.19,22.81-16.7c0,0-4-15.5-18.79-7.16,0,0-9.39,10.73,2.68,13.12,0,0,5.37,1.19,8.05-4.77,0,0,1.34-2.39-2.68-1.19,0,0-9.39,6-5.37-4.77,0,0,9.39-3.58,12.08,6,0,0-2.68,16.7-20.13,10.73,0,0-17.44-10.73-26.84-19.08,0,0-8.05-4.77-16.1-4.77,0,0,25.5-26.24,34.89-28.62,0,0,17.44-6,21.47,10.73,0,0-2.68,10.73-13.42,13.12,0,0-10.73,0-9.39-8.35,0,0,1.34-3.58,6.71,1.19,0,0,2.68,2.39,4,0,0,0,0-11.93-12.08-7.16,0,0-13.42,7.16,1.34,17.89,0,0,17.44,3.58,22.81-6C774.21,763.58,787.63,749.27,806.42,758.81Zm77.83,3.58,12.08,1.19s-9.39,6-17.44,8.35a31.54,31.54,0,0,0-16.1,10.73H852s-20.13,16.7-29.52,15.5-18.79,0-24.15-10.73c0,0,0-13.12,16.1-10.73,0,0,6.71,4.77,2.68,9.54,0,0-2.68,2.39-4-1.19,0,0-2.68-6-5.37-1.19,0,0-2.68,9.54,10.73,8.35,0,0,10.73-4.77,5.37-11.93,0,0,34.89-8.35,36.23-19.08H845.33s-17.44-10.73-21.47-8.35-12.08,6-21.47,1.19-22.81,1.19-22.81,1.19v-9.54s14.76-15.5,38.91-3.58c0,0,28.18-3.58,34.89,8.35C853.38,750.46,877.54,752.84,884.25,762.39ZM897.66,735c-1.34,7.16-16.1,20.28-16.1,20.28l-10.73-6L888.27,729c2.68-6-2.68-3.58-2.68-3.58l-2.68,2.39c-2.68,2.39-4-1.19-4-1.19a9.29,9.29,0,0,1,4.7-6,11.22,11.22,0,0,1,6-1.19,13.74,13.74,0,0,1,6.72,4.63C899.14,727.92,898.19,732.19,897.66,735Z" transform="translate(-3.98 -467.38)"/><path class="cls-2" d="M4.65,599.43c98.55,35.65,140.66,26,140.66,26,41.21-13.37,10.75-34.16,10.75-34.16,6.27-15.59,47.49-12.62,47.49-12.62,9,1.49,26.88-5.94,26.88-5.94,5.38,8.91,30.46,11.88,30.46,11.88l35.84,16.34c23.29,14.85,46.59-4.46,46.59-4.46,16.13-17.82,34-22.28,34-22.28,5.38,0,21.5-4.46,25.09-5.94s17.92-5.94,17.92-5.94c3.58,3,19.71,29.7,19.71,29.7,1.79,19.31,37.63,28.22,37.63,28.22,37.63,3,39.42-17.82,39.42-17.82,5.38-23.76-16.13-26.73-23.29-25.25s-9-7.43-9-7.43c17.92-13.37-1.79-19.31-1.79-19.31-9,0-3.58,7.43-3.58,7.43,7.17,4.46-5.38,7.43-5.38,7.43-17.92-11.88-5.38-22.28,7.17-25.25s35.84,16.34,35.84,16.34h14.34c12.54,19.31,37.63,1.49,37.63,1.49,12.54-11.88,62.72-32.67,62.72-32.67-5.38-1.49-17.92-10.4-17.92-10.4a57.11,57.11,0,0,0-53.76-7.43,23.3,23.3,0,0,1-26.88-4.46C518.92,491,501,495.46,501,495.46c-10.75,4.46-41.21,20.79-41.21,20.79-41.21,1.49-39.42,25.25-39.42,25.25-5.38-8.91-23.29-13.37-23.29-13.37,12.54-34.16-12.54-52-12.54-52-26.88-17.82-43-3-43-3-12.54,19.31,12.54,26.73,12.54,26.73l3.58,14.85-21.5-7.43C325.4,496.95,277,495.46,277,495.46c-28.67-1.49-35.84,3-35.84,3l-34,17.82c-23.29,10.4-73.47,19.31-73.47,19.31C110.37,537,105,546,105,546c-12.54,10.4-23.29,14.85-23.29,14.85-25.09,7.43-35.84,22.28-35.84,22.28-9,1.49-26.88,10.4-26.88,10.4C-.72,596.46,4.65,599.43,4.65,599.43Zm222.19-31.19C216.09,575.67,191,572.7,191,572.7c-43,3-41.21,16.34-41.21,16.34-34-5.94-30.46,10.4-30.46,10.4C114,602.4,99.62,592,99.62,592c-3.58,1.49-19.71,1.49-19.71,1.49,7.17,0,16.13-10.4,16.13-10.4,7.17-10.4,23.29-10.4,23.29-10.4,10.75,1.49,35.84-14.85,35.84-14.85,16.13,0,34-8.91,34-8.91,12.54-10.4,43-8.91,43-8.91,10.75,0,28.67-13.37,28.67-13.37,10.75-8.91,28.67-4.46,28.67-4.46,12.54,0,68.09,22.28,68.09,22.28-7.17,0-16.13,10.4-16.13,10.4-5.38,7.43-10.75,0-10.75,0,0-16.34-30.46-20.79-30.46-20.79-17.92-3-30.46,8.91-30.46,8.91-3.58,5.94-16.13,11.88-16.13,11.88C228.64,557.84,226.85,568.24,226.85,568.24Zm206.07-38.62s3.58-5.94,26.88-8.91a62.13,62.13,0,0,0,17.92-5.94c7-3.61,7.54-5.79,14.34-8.91,4.1-1.89,11.79-5.42,21.5-4.46a33.93,33.93,0,0,1,17.92,7.43,33.08,33.08,0,0,0,15.45,5.57,35.41,35.41,0,0,0,20.39-4.08s26.88-4.46,52,13.37c0,0-50.17,25.25-53.76,29.7,0,0-23.29,14.85-28.67-1.49,0,0-1.79-11.88,10.75-11.88,0,0,9,5.94,5.38-4.46,0,0-12.54-8.91-23.29,5.94,0,0,0,13.37-10.75,10.4,0,0-21.5-16.34-26.88-16.34s-26.88-1.49-34,14.85c0,0-7.17,17.82,19.71,20.79,0,0,3.58,7.43,7.17,7.43,0,0-14.34,10.4-9,17.82s17.92,3,23.29-1.49c0,0,3.58-4.46-3.58-4.46,0,0-14.34,8.91-14.34,1.49s16.13-11.88,19.71-10.4a18.11,18.11,0,0,1,9.25,8.84c2.65,7.29-1.76,16-11,22.35-5.07,1-18.69,2.91-32.25-3a46.29,46.29,0,0,1-16.13-11.88,49.62,49.62,0,0,1-12.54-23.76s-9-17.82-23.29-20.79C415,553.39,427.54,547.45,432.91,529.62Zm-82.43-34.16s-17.92-10.4-1.79-20.79c0,0,23.29-5.94,39.42,14.85,0,0,7.17,11.88,3.58,35.65,0,0-16.13-10.4-25.09-8.91,0,0-1.79-14.85-5.38-16.34,0,0,17.92-7.43,0-17.82,0,0-12.54,0-3.58,5.94C357.65,488,364.82,496.95,350.49,495.46ZM53,584.58a138.36,138.36,0,0,0,25.09-17.82s14.34-3,25.09-13.37,23.29-11.88,25.09-11.88,39.42-7.43,39.42-7.43,41.21-7.43,60.92-23.76,43-8.91,53.76-10.4,44.8,8.91,44.8,8.91S357.65,522.2,363,522.2s10.75,1.49,23.29,5.94S415,546,415,546l-9,5.94c-12.54,5.94,7.17,7.43,7.17,7.43s-28.67,8.91-37.63,10.4-25.09,13.37-37.63,23.76-28.67,7.43-30.46,5.94-41.21-19.31-50.17-20.79S234,568.24,234,568.24c5.38-5.94,16.13-7.43,16.13-7.43,5.38,1.49,16.13-7.43,16.13-7.43C278.81,537,298.52,540,298.52,540c17.92,0,26.88,19.31,26.88,19.31a12.78,12.78,0,0,1-5,9.59c-5.38,4.11-14.35,4.59-21.91.8-4.18-1.77-5.39-6.1-3.1-8.91,2.1-2.55,6.72-3.39,10.27-1.49,10.75,4.46,5.38-4.46,5.38-4.46-9-7.43-19.71,1.49-19.71,1.49-1.09,1-3.69,3.76-3.66,7.47,0,5.15,5.09,10.1,12.61,11.84a37.74,37.74,0,0,0,12.35,1.19,36,36,0,0,0,14.53-4.16,17.05,17.05,0,0,0,4.69-7.25,14.37,14.37,0,0,0,.68-4.63c5.38,3,10.75,0,10.75,0,7.17-8.91,17.92-10.4,17.92-10.4,12.54-3,3.58-7.43,3.58-7.43-3.58-7.43-62.72-23.76-62.72-23.76-17.92-7.43-41.21,0-44.8,3s-21.5,13.37-21.5,13.37c-9-1.49-37.63,1.49-43,5.94s-23.29,10.4-32.25,8.91-23.29,10.4-23.29,10.4-5.38,7.43-17.92,7.43-17.92,4.46-17.92,4.46a52.62,52.62,0,0,1-14.34,10.4c-9,4.46-19.71,8.91-19.71,8.91,7.17,7.43,30.46,4.46,30.46,4.46,9,8.91,21.5,7.43,21.5,7.43,0,1.49,7.17,7.43,7.17,7.43,16.13,4.46,17.92-7.43,17.92-7.43-7.17-8.91-9,3-9,3-17.92,0-5.38-13.37-5.38-13.37,23.29-5.94,30.46,11.88,30.46,11.88-5.38,22.28-57.34,14.85-62.72,13.37S15.4,599.43,15.4,599.43A157.41,157.41,0,0,0,53,584.58Z" transform="translate(-3.98 -467.38)"/></svg>