<?xml version="1.0" encoding="utf-8"?>
<!-- Generator: Adobe Illustrator 16.0.0, SVG Export Plug-In . SVG Version: 6.00 Build 0)  -->
<!DOCTYPE svg PUBLIC "-//W3C//DTD SVG 1.1//EN" "http://www.w3.org/Graphics/SVG/1.1/DTD/svg11.dtd">
<svg version="1.1" id="Layer_1" xmlns="http://www.w3.org/2000/svg" xmlns:xlink="http://www.w3.org/1999/xlink" x="0px" y="0px"
	 width="1440px" height="429px" viewBox="0 0 1440 429" enable-background="new 0 0 1440 429" xml:space="preserve">
<path fill="#F4F4F4" d="M4,379c0,0-7-40.25,20.75-61.5s28.249-37.165,29.583-47.499c0,0,5.668,30.667,32.334,48
	s19.332,58.665,20.666,60.999c0,0-8.666-32.333-33.857-47.798c-12.826-7.874-16.929-31.534-18.202-40.201c0,0,0.06,23.334-20.273,42
	S11.667,350.333,4,379z"/>
<path fill="#F4F4F4" d="M107,379c0,0-7-40.25,20.75-61.5s28.249-37.165,29.583-47.499c0,0,5.668,30.667,32.334,48
	s19.332,58.665,20.666,60.999c0,0-8.666-32.333-33.857-47.798c-12.826-7.874-16.929-31.534-18.202-40.201c0,0,0.06,23.334-20.273,42
	S114.667,350.333,107,379z"/>
<path fill="#F4F4F4" d="M210,379c0,0-7-40.25,20.75-61.5s28.249-37.165,29.583-47.499c0,0,5.668,30.667,32.334,48
	s19.332,58.665,20.666,60.999c0,0-8.666-32.333-33.857-47.798c-12.826-7.874-16.929-31.534-18.202-40.201c0,0,0.06,23.334-20.273,42
	S217.667,350.333,210,379z"/>
<path fill="#F4F4F4" d="M313,379c0,0-7-40.25,20.75-61.5s28.249-37.165,29.583-47.499c0,0,5.668,30.667,32.334,48
	s19.332,58.665,20.666,60.999c0,0-8.666-32.333-33.857-47.798c-12.826-7.874-16.929-31.534-18.202-40.201c0,0,0.06,23.334-20.273,42
	S320.667,350.333,313,379z"/>
<path fill="#F4F4F4" d="M416,379c0,0-7-40.25,20.75-61.5s28.249-37.165,29.583-47.499c0,0,5.668,30.667,32.334,48
	s19.332,58.665,20.666,60.999c0,0-8.666-32.333-33.857-47.798c-12.826-7.874-16.929-31.534-18.202-40.201c0,0,0.06,23.334-20.273,42
	S423.667,350.333,416,379z"/>
<path fill="#F4F4F4" d="M519,379c0,0-7-40.25,20.75-61.5s28.249-37.165,29.583-47.499c0,0,5.668,30.667,32.334,48
	s19.332,58.665,20.666,60.999c0,0-8.666-32.333-33.857-47.798c-12.826-7.874-16.929-31.534-18.202-40.201c0,0,0.06,23.334-20.273,42
	S526.667,350.333,519,379z"/>
<path fill="#F4F4F4" d="M622,379c0,0-7-40.25,20.75-61.5s28.249-37.165,29.583-47.499c0,0,5.668,30.667,32.334,48
	s19.332,58.665,20.666,60.999c0,0-8.666-32.333-33.857-47.798c-12.826-7.874-16.929-31.534-18.202-40.201c0,0,0.06,23.334-20.273,42
	S629.667,350.333,622,379z"/>
<path fill="#F4F4F4" d="M725,379c0,0-7-40.25,20.75-61.5s28.249-37.165,29.583-47.499c0,0,5.668,30.667,32.334,48
	s19.332,58.665,20.666,60.999c0,0-8.666-32.333-33.857-47.798c-12.826-7.874-16.929-31.534-18.202-40.201c0,0,0.06,23.334-20.273,42
	S732.667,350.333,725,379z"/>
<path fill="#F4F4F4" d="M5,294c0,0-7-40.25,20.75-61.5s28.249-37.165,29.583-47.499c0,0,5.668,30.667,32.334,48
	s19.332,58.665,20.666,60.999c0,0-8.666-32.333-33.857-47.798c-12.826-7.874-16.929-31.534-18.202-40.201c0,0,0.06,23.334-20.273,42
	S12.667,265.333,5,294z"/>
<path fill="#F4F4F4" d="M108,294c0,0-7-40.25,20.75-61.5s28.249-37.165,29.583-47.499c0,0,5.668,30.667,32.334,48
	s19.332,58.665,20.666,60.999c0,0-8.666-32.333-33.857-47.798c-12.826-7.874-16.929-31.534-18.202-40.201c0,0,0.06,23.334-20.273,42
	S115.667,265.333,108,294z"/>
<path fill="#F4F4F4" d="M211,294c0,0-7-40.25,20.75-61.5s28.249-37.165,29.583-47.499c0,0,5.668,30.667,32.334,48
	s19.332,58.665,20.666,60.999c0,0-8.666-32.333-33.857-47.798c-12.826-7.874-16.929-31.534-18.202-40.201c0,0,0.06,23.334-20.273,42
	S218.667,265.333,211,294z"/>
<path fill="#F4F4F4" d="M314,294c0,0-7-40.25,20.75-61.5s28.249-37.165,29.583-47.499c0,0,5.668,30.667,32.334,48
	s19.332,58.665,20.666,60.999c0,0-8.666-32.333-33.857-47.798c-12.826-7.874-16.929-31.534-18.202-40.201c0,0,0.06,23.334-20.273,42
	S321.667,265.333,314,294z"/>
<path fill="#F4F4F4" d="M417,294c0,0-7-40.25,20.75-61.5s28.249-37.165,29.583-47.499c0,0,5.668,30.667,32.334,48
	s19.332,58.665,20.666,60.999c0,0-8.666-32.333-33.857-47.798c-12.826-7.874-16.929-31.534-18.202-40.201c0,0,0.06,23.334-20.273,42
	S424.667,265.333,417,294z"/>
<path fill="#F4F4F4" d="M520,294c0,0-7-40.25,20.75-61.5s28.249-37.165,29.583-47.499c0,0,5.668,30.667,32.334,48
	s19.332,58.665,20.666,60.999c0,0-8.666-32.333-33.857-47.798c-12.826-7.874-16.929-31.534-18.202-40.201c0,0,0.06,23.334-20.273,42
	S527.667,265.333,520,294z"/>
<path fill="#F4F4F4" d="M842,415c0,0-7-40.25,20.75-61.5s28.249-37.165,29.583-47.499c0,0,5.668,30.667,32.334,48
	s19.332,58.665,20.666,60.999c0,0-8.666-32.333-33.857-47.798c-12.826-7.874-16.929-31.534-18.202-40.201c0,0,0.06,23.334-20.273,42
	S849.667,386.333,842,415z"/>
<path fill="#F4F4F4" d="M945,415c0,0-7-40.25,20.75-61.5s28.249-37.165,29.583-47.499c0,0,5.668,30.667,32.334,48
	s19.332,58.665,20.666,60.999c0,0-8.666-32.333-33.857-47.798c-12.826-7.874-16.929-31.534-18.202-40.201c0,0,0.06,23.334-20.273,42
	S952.667,386.333,945,415z"/>
<path fill="#F4F4F4" d="M944,372c0,0-7-40.25,20.75-61.5s28.249-37.165,29.583-47.499c0,0,5.668,30.667,32.334,48
	s19.332,58.665,20.666,60.999c0,0-8.666-32.333-33.857-47.798c-12.826-7.874-16.929-31.534-18.202-40.201c0,0,0.06,23.334-20.273,42
	S951.667,343.333,944,372z"/>
<path fill="#F4F4F4" d="M3,213c0,0-7-40.25,20.75-61.5s28.249-37.165,29.583-47.499c0,0,5.668,30.667,32.334,48
	s19.332,58.665,20.666,60.999c0,0-8.666-32.333-33.857-47.798c-12.826-7.874-16.929-31.534-18.202-40.201c0,0,0.06,23.334-20.273,42
	S10.667,184.333,3,213z"/>
<path fill="#F4F4F4" d="M106,213c0,0-7-40.25,20.75-61.5s28.249-37.165,29.583-47.499c0,0,5.668,30.667,32.334,48
	s19.332,58.665,20.666,60.999c0,0-8.666-32.333-33.857-47.798c-12.826-7.874-16.929-31.534-18.202-40.201c0,0,0.06,23.334-20.273,42
	S113.667,184.333,106,213z"/>
<path fill="#F4F4F4" d="M209,213c0,0-7-40.25,20.75-61.5s28.249-37.165,29.583-47.499c0,0,5.668,30.667,32.334,48
	s19.332,58.665,20.666,60.999c0,0-8.666-32.333-33.857-47.798c-12.826-7.874-16.929-31.534-18.202-40.201c0,0,0.06,23.334-20.273,42
	S216.667,184.333,209,213z"/>
<path fill="#F4F4F4" d="M312,213c0,0-7-40.25,20.75-61.5s28.249-37.165,29.583-47.499c0,0,5.668,30.667,32.334,48
	s19.332,58.665,20.666,60.999c0,0-8.666-32.333-33.857-47.798c-12.826-7.874-16.929-31.534-18.202-40.201c0,0,0.06,23.334-20.273,42
	S319.667,184.333,312,213z"/>
<path fill="#F4F4F4" d="M415,213c0,0-7-40.25,20.75-61.5s28.249-37.165,29.583-47.499c0,0,5.668,30.667,32.334,48
	s19.332,58.665,20.666,60.999c0,0-8.666-32.333-33.857-47.798c-12.826-7.874-16.929-31.534-18.202-40.201c0,0,0.06,23.334-20.273,42
	S422.667,184.333,415,213z"/>
<path fill="#F4F4F4" d="M518,213c0,0-7-40.25,20.75-61.5s28.249-37.165,29.583-47.499c0,0,5.668,30.667,32.334,48
	s19.332,58.665,20.666,60.999c0,0-8.666-32.333-33.857-47.798c-12.826-7.874-16.929-31.534-18.202-40.201c0,0,0.06,23.334-20.273,42
	S525.667,184.333,518,213z"/>
<path fill="#F4F4F4" d="M621,213c0,0-7-40.25,20.75-61.5s28.249-37.165,29.583-47.499c0,0,5.668,30.667,32.334,48
	s19.332,58.665,20.666,60.999c0,0-8.666-32.333-33.857-47.798c-12.826-7.874-16.929-31.534-18.202-40.201c0,0,0.06,23.334-20.273,42
	S628.667,184.333,621,213z"/>
<path fill="#F4F4F4" d="M210,423c0,0-7-40.25,20.75-61.5s28.249-37.165,29.583-47.499c0,0,5.668,30.667,32.334,48
	s19.332,58.665,20.666,60.999c0,0-8.666-32.333-33.857-47.798c-12.826-7.874-16.929-31.534-18.202-40.201c0,0,0.06,23.334-20.273,42
	S217.667,394.333,210,423z"/>
<path fill="#F4F4F4" d="M313,423c0,0-7-40.25,20.75-61.5s28.249-37.165,29.583-47.499c0,0,5.668,30.667,32.334,48
	s19.332,58.665,20.666,60.999c0,0-8.666-32.333-33.857-47.798c-12.826-7.874-16.929-31.534-18.202-40.201c0,0,0.06,23.334-20.273,42
	S320.667,394.333,313,423z"/>
<path fill="#F4F4F4" d="M416,423c0,0-7-40.25,20.75-61.5s28.249-37.165,29.583-47.499c0,0,5.668,30.667,32.334,48
	s19.332,58.665,20.666,60.999c0,0-8.666-32.333-33.857-47.798c-12.826-7.874-16.929-31.534-18.202-40.201c0,0,0.06,23.334-20.273,42
	S423.667,394.333,416,423z"/>
<path fill="#F4F4F4" d="M519,423c0,0-7-40.25,20.75-61.5s28.249-37.165,29.583-47.499c0,0,5.668,30.667,32.334,48
	s19.332,58.665,20.666,60.999c0,0-8.666-32.333-33.857-47.798c-12.826-7.874-16.929-31.534-18.202-40.201c0,0,0.06,23.334-20.273,42
	S526.667,394.333,519,423z"/>
<path fill="#F4F4F4" d="M622,423c0,0-7-40.25,20.75-61.5s28.249-37.165,29.583-47.499c0,0,5.668,30.667,32.334,48
	s19.332,58.665,20.666,60.999c0,0-8.666-32.333-33.857-47.798c-12.826-7.874-16.929-31.534-18.202-40.201c0,0,0.06,23.334-20.273,42
	S629.667,394.333,622,423z"/>
<path fill="#F4F4F4" d="M157.333,313.001c0,0,5.921,27.943,28.177,45.063S210.25,384.25,210,422c0,0-6.595-29.817-32.366-47.067
	C177.634,374.933,156,365.335,157.333,313.001z"/>
<path fill="#F4F4F4" d="M314,334c0,0-7-40.25,20.75-61.5s28.249-37.165,29.583-47.499c0,0,5.668,30.667,32.334,48
	s19.332,58.665,20.666,60.999c0,0-8.666-32.333-33.857-47.798c-12.826-7.874-16.929-31.534-18.202-40.201c0,0,0.06,23.334-20.273,42
	S321.667,305.333,314,334z"/>
<path fill="#F4F4F4" d="M417,334c0,0-7-40.25,20.75-61.5s28.249-37.165,29.583-47.499c0,0,5.668,30.667,32.334,48
	s19.332,58.665,20.666,60.999c0,0-8.666-32.333-33.857-47.798c-12.826-7.874-16.929-31.534-18.202-40.201c0,0,0.06,23.334-20.273,42
	S424.667,305.333,417,334z"/>
<path fill="#F4F4F4" d="M520,334c0,0-7-40.25,20.75-61.5s28.249-37.165,29.583-47.499c0,0,5.668,30.667,32.334,48
	s19.332,58.665,20.666,60.999c0,0-8.666-32.333-33.857-47.798c-12.826-7.874-16.929-31.534-18.202-40.201c0,0,0.06,23.334-20.273,42
	S527.667,305.333,520,334z"/>
<path fill="#F4F4F4" d="M623,334c0,0-7-40.25,20.75-61.5s28.249-37.165,29.583-47.499c0,0,5.668,30.667,32.334,48
	s19.332,58.665,20.666,60.999c0,0-8.666-32.333-33.857-47.798c-12.826-7.874-16.929-31.534-18.202-40.201c0,0,0.06,23.334-20.273,42
	S630.667,305.333,623,334z"/>
<path fill="#F4F4F4" d="M261.333,224.001c0,0,5.921,27.943,28.177,45.063S314.25,295.25,314,333c0,0-6.595-29.817-32.366-47.067
	C281.634,285.933,260,276.335,261.333,224.001z"/>
<path fill="#F4F4F4" d="M106.607,336c0,0,7-40.25-20.75-61.5s-28.249-37.165-29.583-47.499c0,0-5.668,30.667-32.334,48
	S4.608,333.666,3.274,336c0,0,8.666-32.333,33.857-47.798c12.826-7.874,16.929-31.534,18.202-40.201c0,0-0.06,23.334,20.273,42
	S98.94,307.333,106.607,336z"/>
<path fill="#F4F4F4" d="M159.274,226.001c0,0-5.921,27.943-28.177,45.063s-24.74,26.186-24.49,63.936
	c0,0,6.595-29.817,32.366-47.067C138.973,287.933,160.608,278.335,159.274,226.001z"/>
<path fill="#F4F4F4" d="M55.274,310.001c0,0-5.921,27.943-28.177,45.063S2.357,381.25,2.607,419c0,0,6.595-29.817,32.366-47.067
	C34.973,371.933,56.608,362.335,55.274,310.001z"/>
<path fill="#F4F4F4" d="M2,251c0,0-7-40.25,20.75-61.5s28.249-37.165,29.583-47.499c0,0,5.668,30.667,32.334,48
	s19.332,58.665,20.666,60.999c0,0-8.666-32.333-33.857-47.798c-12.826-7.874-16.929-31.534-18.202-40.201c0,0,0.06,23.334-20.273,42
	S9.667,222.333,2,251z"/>
<path fill="#F4F4F4" d="M105,251c0,0-7-40.25,20.75-61.5s28.249-37.165,29.583-47.499c0,0,5.668,30.667,32.334,48
	s19.332,58.665,20.666,60.999c0,0-8.666-32.333-33.857-47.798c-12.826-7.874-16.929-31.534-18.202-40.201c0,0,0.06,23.334-20.273,42
	S112.667,222.333,105,251z"/>
<path fill="#F4F4F4" d="M208,251c0,0-7-40.25,20.75-61.5s28.249-37.165,29.583-47.499c0,0,5.668,30.667,32.334,48
	s19.332,58.665,20.666,60.999c0,0-8.666-32.333-33.857-47.798c-12.826-7.874-16.929-31.534-18.202-40.201c0,0,0.06,23.334-20.273,42
	S215.667,222.333,208,251z"/>
<path fill="#F4F4F4" d="M363.274,142.001c0,0-5.921,27.943-28.177,45.063s-24.74,26.186-24.49,63.936
	c0,0,6.595-29.817,32.366-47.067C342.973,203.933,364.608,194.335,363.274,142.001z"/>
<path fill="#F4F4F4" d="M726,303c0,0-7-40.25,20.75-61.5s28.249-37.165,29.583-47.499c0,0,5.668,30.667,32.334,48
	s19.332,58.665,20.666,60.999c0,0-8.666-32.333-33.857-47.798c-12.826-7.874-16.929-31.534-18.202-40.201c0,0,0.06,23.334-20.273,42
	S733.667,274.333,726,303z"/>
<path fill="#F4F4F4" d="M521,256c0,0-7-40.25,20.75-61.5s28.249-37.165,29.583-47.499c0,0,5.668,30.667,32.334,48
	s19.332,58.665,20.666,60.999c0,0-8.666-32.333-33.857-47.798c-12.826-7.874-16.929-31.534-18.202-40.201c0,0,0.06,23.334-20.273,42
	S528.667,227.333,521,256z"/>
<path fill="#F4F4F4" d="M624,256c0,0-7-40.25,20.75-61.5s28.249-37.165,29.583-47.499c0,0,5.668,30.667,32.334,48
	s19.332,58.665,20.666,60.999c0,0-8.666-32.333-33.857-47.798c-12.826-7.874-16.929-31.534-18.202-40.201c0,0,0.06,23.334-20.273,42
	S631.667,227.333,624,256z"/>
<path fill="#F4F4F4" d="M727,256c0,0-7-40.25,20.75-61.5s28.249-37.165,29.583-47.499c0,0,5.668,30.667,32.334,48
	s19.332,58.665,20.666,60.999c0,0-8.666-32.333-33.857-47.798c-12.826-7.874-16.929-31.534-18.202-40.201c0,0,0.06,23.334-20.273,42
	S734.667,227.333,727,256z"/>
<path fill="#F4F4F4" d="M468.333,146.001c0,0,5.921,27.943,28.177,45.063S521.25,217.25,521,255c0,0-6.595-29.817-32.366-47.067
	C488.634,207.933,467,198.335,468.333,146.001z"/>
<path fill="#F4F4F4" d="M5,131c0,0-7-40.25,20.75-61.5s28.249-37.165,29.583-47.499c0,0,5.668,30.667,32.334,48
	s19.332,58.665,20.666,60.999c0,0-8.666-32.333-33.857-47.798c-12.826-7.874-16.929-31.534-18.202-40.201c0,0,0.06,23.334-20.273,42
	S12.667,102.333,5,131z"/>
<path fill="#F4F4F4" d="M108,131c0,0-7-40.25,20.75-61.5s28.249-37.165,29.583-47.499c0,0,5.668,30.667,32.334,48
	s19.332,58.665,20.666,60.999c0,0-8.666-32.333-33.857-47.798c-12.826-7.874-16.929-31.534-18.202-40.201c0,0,0.06,23.334-20.273,42
	S115.667,102.333,108,131z"/>
<path fill="#F4F4F4" d="M211,131c0,0-7-40.25,20.75-61.5s28.249-37.165,29.583-47.499c0,0,5.668,30.667,32.334,48
	s19.332,58.665,20.666,60.999c0,0-8.666-32.333-33.857-47.798c-12.826-7.874-16.929-31.534-18.202-40.201c0,0,0.06,23.334-20.273,42
	S218.667,102.333,211,131z"/>
<path fill="#F4F4F4" d="M314,131c0,0-7-40.25,20.75-61.5s28.249-37.165,29.583-47.499c0,0,5.668,30.667,32.334,48
	s19.332,58.665,20.666,60.999c0,0-8.666-32.333-33.857-47.798c-12.826-7.874-16.929-31.534-18.202-40.201c0,0,0.06,23.334-20.273,42
	S321.667,102.333,314,131z"/>
<path fill="#F4F4F4" d="M417,131c0,0-7-40.25,20.75-61.5s28.249-37.165,29.583-47.499c0,0,5.668,30.667,32.334,48
	s19.332,58.665,20.666,60.999c0,0-8.666-32.333-33.857-47.798c-12.826-7.874-16.929-31.534-18.202-40.201c0,0,0.06,23.334-20.273,42
	S424.667,102.333,417,131z"/>
<path fill="#F4F4F4" d="M520,131c0,0-7-40.25,20.75-61.5s28.249-37.165,29.583-47.499c0,0,5.668,30.667,32.334,48
	s19.332,58.665,20.666,60.999c0,0-8.666-32.333-33.857-47.798c-12.826-7.874-16.929-31.534-18.202-40.201c0,0,0.06,23.334-20.273,42
	S527.667,102.333,520,131z"/>
<path fill="#F4F4F4" d="M623,131c0,0-7-40.25,20.75-61.5s28.249-37.165,29.583-47.499c0,0,5.668,30.667,32.334,48
	s19.332,58.665,20.666,60.999c0,0-8.666-32.333-33.857-47.798c-12.826-7.874-16.929-31.534-18.202-40.201c0,0,0.06,23.334-20.273,42
	S630.667,102.333,623,131z"/>
<path fill="#F4F4F4" d="M107,171c0,0-7-40.25,20.75-61.5s28.249-37.165,29.583-47.499c0,0,5.668,30.667,32.334,48
	s19.332,58.665,20.666,60.999c0,0-8.666-32.333-33.857-47.798c-12.826-7.874-16.929-31.534-18.202-40.201c0,0,0.06,23.334-20.273,42
	S114.667,142.333,107,171z"/>
<path fill="#F4F4F4" d="M210,171c0,0-7-40.25,20.75-61.5s28.249-37.165,29.583-47.499c0,0,5.668,30.667,32.334,48
	s19.332,58.665,20.666,60.999c0,0-8.666-32.333-33.857-47.798c-12.826-7.874-16.929-31.534-18.202-40.201c0,0,0.06,23.334-20.273,42
	S217.667,142.333,210,171z"/>
<path fill="#F4F4F4" d="M313,171c0,0-7-40.25,20.75-61.5s28.249-37.165,29.583-47.499c0,0,5.668,30.667,32.334,48
	s19.332,58.665,20.666,60.999c0,0-8.666-32.333-33.857-47.798c-12.826-7.874-16.929-31.534-18.202-40.201c0,0,0.06,23.334-20.273,42
	S320.667,142.333,313,171z"/>
<path fill="#F4F4F4" d="M416,171c0,0-7-40.25,20.75-61.5s28.249-37.165,29.583-47.499c0,0,5.668,30.667,32.334,48
	s19.332,58.665,20.666,60.999c0,0-8.666-32.333-33.857-47.798c-12.826-7.874-16.929-31.534-18.202-40.201c0,0,0.06,23.334-20.273,42
	S423.667,142.333,416,171z"/>
<path fill="#F4F4F4" d="M519,171c0,0-7-40.25,20.75-61.5s28.249-37.165,29.583-47.499c0,0,5.668,30.667,32.334,48
	s19.332,58.665,20.666,60.999c0,0-8.666-32.333-33.857-47.798c-12.826-7.874-16.929-31.534-18.202-40.201c0,0,0.06,23.334-20.273,42
	S526.667,142.333,519,171z"/>
</svg>
