<svg id="Layer_1" data-name="Layer 1" xmlns="http://www.w3.org/2000/svg" viewBox="0 0 167.94 369.4"><defs><style>.cls-1{fill:none;stroke:#ffdcd6;stroke-miterlimit:10;}.cls-2{fill:#ffdcd6;}</style></defs><title>pattern_kepalasisingaan</title><path class="cls-1" d="M0,385.62s20.94-2.4,30.24-4.79,14-2.4,14-2.4" transform="translate(0.44 -320.03)"/><path class="cls-1" d="M0,378.44s6.22,4.94,8.93,6.06" transform="translate(0.44 -320.03)"/><path class="cls-1" d="M16.28,368.85s7,7.19,11.63,9.58l4.65,2.4" transform="translate(0.44 -320.03)"/><path class="cls-1" d="M32.57,364.06s14,19.16,18.61,21.56S69.79,376,69.79,349.69" transform="translate(0.44 -320.03)"/><path class="cls-1" d="M55.83,464.67a23.89,23.89,0,0,1-14,0c-7-2.4-9.31-9.58-9.31-9.58s11.63-4.79,16.28,0A41.35,41.35,0,0,1,55.83,464.67Z" transform="translate(0.44 -320.03)"/><path class="cls-1" d="M53.51,438.32s2.33,26.35,18.61,4.79" transform="translate(0.44 -320.03)"/><path class="cls-2" d="M20.94,558.08c2.33,7.19,4.65,26.35,9.31,35.93s9.31,7.19,16.28,7.19,48.85-2.4,48.85-2.4a7.11,7.11,0,0,0,4.65-2.4c2.33-2.4,4.65-12,4.65-12h4.65l7-4.79c9.31-4.79,14-19.16,16.28-26.35s0-24,0-24l-7,7.19c-14,9.58-46.53-4.79-46.53-4.79-4.65,12,9.31,16.77,9.31,16.77,14,4.79,9.31,19.16,9.31,19.16C60.49,598.8,20.94,558.08,20.94,558.08Zm83.75,14.37c4.65-12,23.26-26.35,23.26-26.35-2.33,21.56-16.28,31.14-16.28,31.14C104.69,582,104.69,572.45,104.69,572.45ZM34.9,577.24s30.24,14.37,60.49-2.4c0,0,9.31,9.58,0,19.16,0,0-46.53,2.4-51.18,0S34.9,584.43,34.9,577.24Z" transform="translate(0.44 -320.03)"/><path class="cls-1" d="M46.53,524.55s-14,9.58-4.65,33.53" transform="translate(0.44 -320.03)"/><ellipse class="cls-2" cx="69.07" cy="241.64" rx="2.33" ry="2.4"/><ellipse class="cls-2" cx="64.41" cy="232.06" rx="2.33" ry="2.4"/><ellipse class="cls-2" cx="55.11" cy="236.85" rx="2.33" ry="2.4"/><path class="cls-1" d="M88.4,433.53s2.33,4.79,2.33,14.37,0,24,2.33,21.56" transform="translate(0.44 -320.03)"/><path class="cls-1" d="M109.34,440.71s2.33,14.37-9.31,4.79" transform="translate(0.44 -320.03)"/><path class="cls-1" d="M109.34,469.46c2.33,0,7,0,11.63-9.58,0,0-2.33-7.19-11.63,0a33.51,33.51,0,0,0,0,16.77c2.33,9.58,14,26.35,14,26.35s7,9.58,9.31,26.35" transform="translate(0.44 -320.03)"/><path class="cls-1" d="M63.68,376.1S81.42,380.83,88.4,388s14,26.35,18.61,33.53,16.28,16.77,18.61,24,4.65,14.37,0,28.74S118.17,495,118.17,495" transform="translate(0.44 -320.03)"/><path class="cls-1" d="M79.1,364.06s-7,9.58-9.31,14.37" transform="translate(0.44 -320.03)"/><path class="cls-1" d="M79.1,380.83c2.33-9.58,11.63-9.58,18.61-9.58s11.63,0,14-2.4a34.58,34.58,0,0,0,4.65-7.19s-2.33,0-7-2.4-7,0-7,0v-2.4c0-2.4,0-2.4-2.33-4.79s-7,2.4-7,2.4,2.33-2.4,2.33-9.58a29.78,29.78,0,0,1,2.33-12l-4.65,4.79-4.65,4.79" transform="translate(0.44 -320.03)"/><path class="cls-1" d="M116.32,368.85a43.59,43.59,0,0,0,9.31,7.19c4.65,2.4,14,2.4,14,2.4s-2.33,2.4-7,12-2.33,19.16-7,28.74A114.8,114.8,0,0,0,119,435.56" transform="translate(0.44 -320.03)"/><path class="cls-1" d="M131.38,393.38a59,59,0,0,0,8.2,11.4c4.65,4.79,9.31,4.79,9.31,4.79s-14,7.19-16.28,4.79a42.73,42.73,0,0,0-4.29-3.89" transform="translate(0.44 -320.03)"/><path class="cls-1" d="M135.8,414.85s-.87,16.28,8.43,21.07c0,0-17.8-1.31-20.53-12.63" transform="translate(0.44 -320.03)"/><path class="cls-1" d="M137.26,435.92s7,21.56,18.61,28.74c0,0-11.63,7.19-25.59-7.19" transform="translate(0.44 -320.03)"/><path class="cls-1" d="M146.56,467.06s7,14.37,11.63,14.37h4.65s-18.61,0-23.26-2.4c0,0,16.28,19.16,20.94,19.16l4.65,2.4s-20.94,0-25.59-4.79c0,0,11.63,19.16,18.61,24s9.31,4.79,9.31,4.79-11.63,0-23.26-9.58l-11.63-9.58" transform="translate(0.44 -320.03)"/><path class="cls-1" d="M148.69,518.2s2.52,25.51.2,35.09l-2.33,9.58s-7-9.58-7-19.16v-9.58" transform="translate(0.44 -320.03)"/><path class="cls-1" d="M143.68,558.08s.56,16.77-4.09,26.35-7,12-7,12,0-9.58-2.33-16.77L128,572.45" transform="translate(0.44 -320.03)"/><path class="cls-1" d="M132.08,588.51s-1.81,15.08-8.78,22.27l-7,7.19V606s-2.33-2.4-7,9.58l-4.65,12-2.33-14.37s-4.65,4.79-9.31,19.16L88.4,646.71l-2.33-12s-2.33-4.79-7,9.58l-4.65,14.37-2.33-21.56s-2.33,9.58-4.65,16.77-4.65,16.77-4.65,16.77V644.31" transform="translate(0.44 -320.03)"/><path class="cls-1" d="M87.24,386.82s0-7.19,11.63-7.19H110.5" transform="translate(0.44 -320.03)"/><path class="cls-1" d="M93.06,337.72s2.33-7.19-7-12l-9.31-4.79s2.33,21.56-2.33,24" transform="translate(0.44 -320.03)"/><path class="cls-1" d="M77.33,330.52" transform="translate(0.44 -320.03)"/><path class="cls-1" d="M77.23,327.23s-9.76-8.67-16.74-6.28c0,0,4.65,4.79,2.33,9.58s4.65-4.79-9.31-2.4c0,0,7,2.4,4.65,7.19" transform="translate(0.44 -320.03)"/><path class="cls-1" d="M58,331.4s-4.52,1.52-11.5-.87l-7-2.4a11.88,11.88,0,0,0,0,9.58c2.33,4.79,4.65,4.79,4.65,4.79" transform="translate(0.44 -320.03)"/><path class="cls-1" d="M38.51,332.92s-12.92-4.79-19.9-2.4c0,0,4.65,4.79,4.65,9.58,0,0-9.31-2.4-14-4.79l-4.65-2.4s0,9.58,4.65,12" transform="translate(0.44 -320.03)"/><line class="cls-1" x1="6.01" y1="19.3" x2="0.44" y2="11.7"/><path class="cls-1" d="M61.65,654.49,58.16,685l-4.65-40.72v19.16l-7-14.37-4.65,14.37s-4.65-21.56-2.33-26.35c0,0-7,9.58-7,12,0,0-2.33-9.58,0-16.77,0,0-7,7.19-7,9.58V622.75l-7,14.37s-4.65-14.37-2.33-24l-4.65,14.37s-2.33-7.19-2.33-12v-7.19L7,615.57l-2.33-12L0,612" transform="translate(0.44 -320.03)"/></svg>